<svg width="18" height="61" viewBox="0 0 18 61" version="1.1" xmlns="https://www.w3.org/2000/svg" xmlns:xlink="https://www.w3.org/1999/xlink">
<title>mouse_1</title>
<desc>Created using Figma</desc>
<g id="Canvas" transform="translate(526 -774)">
<g id="mouse_1">
<g id="Rectangle 2">
<use xlink:href="#path0_fill" transform="translate(-518 807)" fill="#FFFFFF"/>
</g>
<g id="Vector">
<use xlink:href="#path1_fill" transform="translate(-525.25 774)" fill="#FFFFFF"/>
</g>
</g>
</g>
<defs>
<path id="path0_fill" d="M 0 0L 2 0L 2 28L 0 28L 0 0Z"/>
<path id="path1_fill" d="M 8.25129 4.49219e-05C 8.25089 4.49219e-05 8.25044 0 8.24999 0C 8.24954 0 8.24914 4.49219e-05 8.24869 4.49219e-05C 3.70026 0.000763672 -1.91927e-08 3.70138 -1.91927e-08 8.25004L -1.91927e-08 14.75C -1.91927e-08 19.2991 3.70093 23 8.24999 23C 12.7991 23 16.5 19.2991 16.5 14.75L 16.5 8.25004C 16.5 3.70138 12.7998 0.000763672 8.25129 4.49219e-05ZM 8.24999 6.00003C 8.66354 6.00003 9.00001 6.3365 9.00001 6.75005L 9.00001 8.25004C 9.00001 8.66359 8.66354 9.00005 8.24999 9.00005C 7.83644 9.00005 7.49998 8.66359 7.49998 8.25004L 7.49998 6.75005C 7.49998 6.3365 7.83644 6.00003 8.24999 6.00003ZM 15 14.75C 15 18.472 11.9719 21.5 8.24999 21.5C 4.52804 21.5 1.49999 18.472 1.49999 14.75L 1.49999 8.25004C 1.49999 4.78157 4.12967 1.91623 7.49998 1.54194L 7.49998 4.62906C 6.62701 4.93867 5.99999 5.77233 5.99999 6.75005L 5.99999 8.25004C 5.99999 9.49069 7.00934 10.5 8.24999 10.5C 9.49064 10.5 10.5 9.49069 10.5 8.25004L 10.5 6.75005C 10.5 5.77228 9.87293 4.93867 9.00001 4.62906L 9.00001 1.54194C 12.3703 1.91623 15 4.78157 15 8.25004L 15 14.75L 15 14.75Z"/>
</defs>
</svg>
