<svg width="42" height="42" viewBox="0 0 42 42" version="1.1" xmlns="https://www.w3.org/2000/svg" xmlns:xlink="https://www.w3.org/1999/xlink">
<title>Subtract</title>
<desc>Created using Figma</desc>
<g id="Canvas" transform="translate(-775 -7300)">
<g id="Subtract">
<use xlink:href="#path0_fill" transform="translate(775 7300)" fill="#FFFFFF"/>
</g>
</g>
<defs>
<path id="path0_fill" fill-rule="evenodd" d="M 21 42C 32.598 42 42 32.5977 42 21C 42 9.40234 32.598 0 21 0C 9.40204 0 0 9.40234 0 21C 0 32.5977 9.40204 42 21 42ZM 27.4286 13.2861C 27.5446 13.2861 27.6607 13.3213 27.75 13.3838C 27.9375 13.5176 28.0268 13.7324 27.9911 13.9551L 25.7054 27.6699C 25.6786 27.8389 25.5714 27.9824 25.4196 28.0713C 25.3393 28.1162 25.2411 28.1426 25.1429 28.1426C 25.0714 28.1426 25 28.125 24.9286 28.0986L 20.8839 26.4463L 18.7232 29.0801C 18.6161 29.2139 18.4554 29.2861 18.2857 29.2861C 18.2232 29.2861 18.1518 29.2764 18.0893 29.25C 17.8661 29.1699 17.7143 28.9551 17.7143 28.7139L 17.7143 25.5986L 25.4286 16.1426L 15.8839 24.4014L 12.3571 22.9551C 12.1518 22.875 12.0179 22.6875 12 22.4639C 11.9911 22.25 12.0982 22.0449 12.2857 21.9375L 27.1429 13.3662C 27.2321 13.3125 27.3304 13.2861 27.4286 13.2861Z"/>
</defs>
</svg>
