<svg width="48" height="48" viewBox="0 0 48 48" version="1.1" xmlns="http://www.w3.org/2000/svg" xmlns:xlink="http://www.w3.org/1999/xlink">
<title>Group 11</title>
<desc>Created using Figma</desc>
<g id="Canvas" transform="translate(-1676 -2013)">
<g id="Group 11">
<g id="Ellipse 8.3">
<use xlink:href="#path0_fill" transform="translate(1676 2013)" fill="url(#paint0_linear)"/>
</g>
<g id="$">
<use xlink:href="#path1_fill" transform="translate(1693 2025.82)" fill="#FFFFFF"/>
</g>
</g>
</g>
<defs>
<linearGradient id="paint0_linear" x1="0" y1="0" x2="1" y2="0" gradientUnits="userSpaceOnUse" gradientTransform="matrix(0 46.4646 -46.3471 0 23.6257 24.542)">
<stop offset="0" stop-color="#331D50"/>
<stop offset="1" stop-color="#247FAD"/>
</linearGradient>
<path id="path0_fill" d="M 47.2515 23.6856C 47.2515 36.7669 36.6739 47.3713 23.6257 47.3713C 10.5776 47.3713 0 36.7669 0 23.6856C 0 10.6044 10.5776 0 23.6257 0C 36.6739 0 47.2515 10.6044 47.2515 23.6856Z"/>
<path id="path1_fill" d="M 1.00949 14.1638C 1.00949 15.7925 1.4611 17.1006 2.36433 18.0881C 3.28526 19.0757 4.67552 19.6215 6.5351 19.7254L 6.5351 11.0712L 5.28653 10.7853C 4.7198 10.664 4.15307 10.5081 3.58634 10.3175C 3.03732 10.1096 2.53257 9.84105 2.07211 9.51186C 1.62935 9.16535 1.26629 8.7322 0.982922 8.21243C 0.717268 7.67533 0.58444 7.00829 0.58444 6.2113C 0.58444 5.91676 0.628716 5.5096 0.717268 4.98983C 0.805819 4.45273 1.04491 3.91563 1.43454 3.37853C 1.84187 2.84143 2.43517 2.37363 3.21442 1.97514C 4.01138 1.55932 5.11828 1.32542 6.5351 1.27345L 6.5351 0L 7.3852 0L 7.3852 1.27345C 9.22707 1.3081 10.697 1.77589 11.7951 2.67684C 12.8931 3.57778 13.4775 5.01582 13.5484 6.99096L 12.5389 6.99096C 12.4326 5.29303 11.9279 4.08889 11.0247 3.37853C 10.1214 2.65085 8.90829 2.26968 7.3852 2.23503L 7.3852 10.2915L 9.45731 10.7853C 10.3251 10.9932 11.0512 11.2618 11.6357 11.591C 12.2201 11.9028 12.6894 12.2667 13.0436 12.6825C 13.3978 13.081 13.6458 13.5228 13.7875 14.0079C 13.9292 14.4757 14 14.9782 14 15.5153C 14 16.4855 13.8052 17.2998 13.4156 17.9582C 13.0436 18.5992 12.5478 19.1277 11.9279 19.5435C 11.308 19.942 10.5996 20.2279 9.80266 20.4011C 9.00569 20.5917 8.19987 20.6957 7.3852 20.713L 7.3852 23L 6.5351 23L 6.5351 20.713C 5.56104 20.6264 4.66667 20.4531 3.85199 20.1932C 3.05503 19.916 2.37318 19.5175 1.80645 18.9977C 1.23972 18.478 0.796964 17.8282 0.478178 17.0486C 0.159393 16.2516 0 15.29 0 14.1638L 1.00949 14.1638ZM 6.5351 10.0576L 6.5351 2.26102C 5.63188 2.29567 4.87034 2.42561 4.25047 2.65085C 3.63061 2.85876 3.11701 3.13597 2.70968 3.48249C 2.32005 3.829 2.03669 4.23616 1.85958 4.70395C 1.68248 5.17175 1.59393 5.6742 1.59393 6.2113C 1.59393 6.8177 1.69133 7.32881 1.88615 7.74463C 2.09867 8.14313 2.37318 8.48098 2.70968 8.75819C 3.06388 9.01808 3.47122 9.23465 3.93169 9.40791C 4.40987 9.56384 4.91461 9.70245 5.44592 9.82373L 6.5351 10.0576ZM 7.3852 19.7254C 8.14674 19.7254 8.86401 19.6475 9.537 19.4915C 10.21 19.3356 10.8033 19.093 11.3169 18.7638C 11.8305 18.4173 12.2378 17.9842 12.5389 17.4644C 12.84 16.9273 12.9905 16.2776 12.9905 15.5153C 12.9905 14.5277 12.6717 13.722 12.0342 13.0983C 11.3966 12.4746 10.3871 11.9895 9.00569 11.6429L 7.3852 11.2531L 7.3852 19.7254Z"/>
</defs>
</svg>
