<svg width="48" height="48" viewBox="0 0 48 48" version="1.1" xmlns="http://www.w3.org/2000/svg" xmlns:xlink="http://www.w3.org/1999/xlink">
<title>Group 10</title>
<desc>Created using Figma</desc>
<g id="Canvas" transform="translate(-1676 -2225)">
<g id="Group 10">
<g id="Ellipse 8.6">
<use xlink:href="#path0_fill" transform="matrix(-1 0 0 1 1723.25 2225)" fill="url(#paint0_linear)"/>
</g>
<g id="speech-bubble">
<g id="Group">
<g id="Vector">
<use xlink:href="#path1_fill" transform="translate(1687 2237.23)" fill="#FFFFFF"/>
</g>
<g id="Vector">
<use xlink:href="#path2_fill" transform="translate(1704.99 2247.02)" fill="#FFFFFF"/>
</g>
<g id="Vector">
<use xlink:href="#path3_fill" transform="translate(1699.17 2247.02)" fill="#FFFFFF"/>
</g>
<g id="Vector">
<use xlink:href="#path4_fill" transform="translate(1693.35 2247.02)" fill="#FFFFFF"/>
</g>
</g>
</g>
</g>
</g>
<defs>
<linearGradient id="paint0_linear" x1="0" y1="0" x2="1" y2="0" gradientUnits="userSpaceOnUse" gradientTransform="matrix(0 46.4646 -46.3471 0 23.6257 24.542)">
<stop offset="0" stop-color="#331D50"/>
<stop offset="1" stop-color="#247FAD"/>
</linearGradient>
<path id="path0_fill" d="M 47.2515 23.6856C 47.2515 36.7669 36.6739 47.3713 23.6257 47.3713C 10.5776 47.3713 0 36.7669 0 23.6856C 0 10.6044 10.5776 0 23.6257 0C 36.6739 0 47.2515 10.6044 47.2515 23.6856Z"/>
<path id="path1_fill" d="M 5.72099 25C 5.65735 25 5.59293 24.9846 5.53479 24.9537C 5.40752 24.8866 5.32817 24.7555 5.32817 24.6143L 5.32817 19.1195C 1.88945 17.3639 0 14.2902 0 10.439C 0 4.48754 5.5725 -1.83897e-10 12.963 -1.83897e-10C 20.3534 -1.83897e-10 25.9259 4.48754 25.9259 10.439C 25.9259 16.3898 20.3534 20.8773 12.963 20.8773C 12.7202 20.8773 12.4822 20.8642 12.2433 20.8518L 12.2276 20.8511L 5.93704 24.936C 5.87183 24.9784 5.79641 25 5.72099 25ZM 12.963 0.771319C 6.0211 0.771319 0.785634 4.92796 0.785634 10.439C 0.785634 13.0021 1.67183 16.4877 5.89461 18.5371C 6.02817 18.6019 6.11302 18.7361 6.11302 18.8827L 6.11302 23.897L 11.9024 20.1376C 11.9731 20.0913 12.0587 20.0643 12.1396 20.0744L 12.2857 20.0821C 12.5104 20.0944 12.7343 20.106 12.9622 20.106C 19.904 20.106 25.1395 15.9501 25.1395 10.439C 25.1395 4.92796 19.9048 0.771319 12.963 0.771319Z"/>
<path id="path2_fill" d="M 0.795848 1.56269C 1.23538 1.56269 1.5917 1.21287 1.5917 0.781347C 1.5917 0.349821 1.23538 0 0.795848 0C 0.356313 0 0 0.349821 0 0.781347C 0 1.21287 0.356313 1.56269 0.795848 1.56269Z"/>
<path id="path3_fill" d="M 0.795847 1.56269C 1.23538 1.56269 1.5917 1.21287 1.5917 0.781347C 1.5917 0.349821 1.23538 0 0.795847 0C 0.356313 0 0 0.349821 0 0.781347C 0 1.21287 0.356313 1.56269 0.795847 1.56269Z"/>
<path id="path4_fill" d="M 0.795847 1.56269C 1.23538 1.56269 1.59169 1.21287 1.59169 0.781347C 1.59169 0.349821 1.23538 0 0.795847 0C 0.356313 0 0 0.349821 0 0.781347C 0 1.21287 0.356313 1.56269 0.795847 1.56269Z"/>
</defs>
</svg>
