<svg width="32" height="28" viewBox="0 0 32 28" version="1.1" xmlns="https://www.w3.org/2000/svg" xmlns:xlink="https://www.w3.org/1999/xlink">
<title>&#239;&#136;&#186;</title>
<desc>Created using Figma</desc>
<g id="Canvas" transform="translate(-295 -6605)">
<g id="&#239;&#136;&#186;">
<use xlink:href="#path0_fill" transform="translate(295 6605.04)" fill="#331D50"/>
</g>
</g>
<defs>
<path id="path0_fill" d="M 10.6607 5.05357C 10.6607 5.03571 10.625 4.98214 10.6071 4.96428L 1.48214 0.392857C 1.23214 0.267857 0.982143 0.125 0.696428 0.125C 0.214285 0.125 0 0.535713 0 0.982141L 0 21.3393C 0 21.875 0.392858 22.5179 0.892858 22.7679L 9.19643 26.9286C 9.375 27.0179 9.57143 27.0714 9.78571 27.0714C 10.3929 27.0714 10.6607 26.5536 10.6607 26L 10.6607 5.05357ZM 11.8036 6.85714L 11.8036 17.5714L 21.3393 22.3214L 11.8036 6.85714ZM 32 7.17857L 22.3571 22.8393L 30.2321 26.7679C 30.4821 26.9107 30.7679 27 31.0714 27C 31.6607 27 32 26.5893 32 26L 32 7.17857ZM 31.9464 5.03571C 31.9464 4.98214 31.9107 4.94643 31.875 4.92857L 22.2143 0.107141C 22.0714 0.0357132 21.9107 0 21.75 0C 21.375 0 21.0179 0.17857 20.8214 0.5L 15.0357 9.91071L 22 21.2321C 22.7143 20.0893 31.9464 5.10714 31.9464 5.03571Z"/>
</defs>
</svg>
