<svg width="48" height="48" viewBox="0 0 48 48" version="1.1" xmlns="http://www.w3.org/2000/svg" xmlns:xlink="http://www.w3.org/1999/xlink">
<title>Group 12</title>
<desc>Created using Figma</desc>
<g id="Canvas" transform="translate(-1676 -1799)">
<g id="Group 12">
<g id="Group 9">
<g id="Ellipse 8.4">
<use xlink:href="#path0_fill" transform="translate(1676 1799)" fill="url(#paint0_linear)"/>
</g>
<g id="fountain-pen">
<g id="Group">
<g id="Group">
<g id="Vector">
<use xlink:href="#path1_fill" transform="translate(1691.44 1813)" fill="#FFFFFF"/>
</g>
<g id="Vector">
<use xlink:href="#path2_fill" transform="translate(1699.42 1813)" fill="#FFFFFF"/>
</g>
</g>
<g id="Vector">
<use xlink:href="#path3_fill" transform="translate(1699.42 1822.45)" fill="#FFFFFF"/>
</g>
<g id="Vector">
<use xlink:href="#path4_fill" transform="translate(1698.2 1819.99)" fill="#FFFFFF"/>
</g>
<g id="Vector">
<use xlink:href="#path5_fill" transform="translate(1692.21 1813)" fill="#FFFFFF"/>
</g>
</g>
</g>
</g>
</g>
</g>
<defs>
<linearGradient id="paint0_linear" x1="0" y1="0" x2="1" y2="0" gradientUnits="userSpaceOnUse" gradientTransform="matrix(0 46.4646 -46.3471 0 23.6257 24.542)">
<stop offset="0" stop-color="#331D50"/>
<stop offset="1" stop-color="#247FAD"/>
</linearGradient>
<path id="path0_fill" d="M 47.2515 23.6856C 47.2515 36.7669 36.6739 47.3713 23.6257 47.3713C 10.5776 47.3713 0 36.7669 0 23.6856C 0 10.6044 10.5776 0 23.6257 0C 36.6739 0 47.2515 10.6044 47.2515 23.6856Z"/>
<path id="path1_fill" d="M 8.31674 22.9999C 8.12694 22.9999 7.9729 22.8438 7.9729 22.6514C 7.9729 14.9527 0.187742 7.48054 0.108659 7.40666C 0.024763 7.3272 -0.0144344 7.21011 0.00482047 7.09511C 0.0240754 6.98011 0.0983442 6.88184 0.203558 6.83445C 5.26278 4.53585 3.94863 0.631448 3.89018 0.466267C 3.82623 0.285055 3.91906 0.085723 4.09786 0.0202081C 4.27459 -0.0439128 4.47333 0.0494807 4.53797 0.230692C 4.55379 0.275995 6.03229 4.65643 0.938682 7.25193C 2.52308 8.85704 8.66058 15.5347 8.66058 22.6514C 8.66058 22.8438 8.50654 22.9999 8.31674 22.9999Z"/>
<path id="path2_fill" d="M 0.343837 22.9996C 0.154039 22.9996 0 22.8435 0 22.6511C 0 15.5344 6.13749 8.85677 7.72258 7.25165C 2.62898 4.65546 4.10748 0.275719 4.12329 0.230416C 4.18725 0.0492047 4.38324 -0.0434918 4.56203 0.0199321C 4.74014 0.08475 4.83366 0.283385 4.77108 0.465294C 4.71332 0.630475 3.41912 4.54533 8.45702 6.83417C 8.56223 6.88157 8.6365 6.97984 8.65576 7.09484C 8.67432 7.20984 8.63581 7.32693 8.55192 7.40638C 8.47283 7.48026 0.687674 14.958 0.687674 22.6511C 0.687674 22.8435 0.533635 22.9996 0.343837 22.9996Z"/>
<path id="path3_fill" d="M 0.343837 13.5497C 0.154039 13.5497 0 13.3936 0 13.2012L 0 0.348483C 0 0.15612 0.154039 1.06349e-08 0.343837 1.06349e-08C 0.533635 1.06349e-08 0.687674 0.15612 0.687674 0.348483L 0.687674 13.2012C 0.687674 13.3936 0.533635 13.5497 0.343837 13.5497Z"/>
<path id="path4_fill" d="M 1.55621 3.15447C 0.697989 3.15447 3.20039e-07 2.44705 3.20039e-07 1.57793C 3.20039e-07 0.708118 0.697989 -5.31743e-09 1.55621 -5.31743e-09C 2.41442 -5.31743e-09 3.11241 0.708118 3.11241 1.57793C 3.11241 2.44705 2.41442 3.15447 1.55621 3.15447ZM 1.55621 0.696966C 1.07759 0.696966 0.687675 1.09145 0.687675 1.57793C 0.687675 2.06232 1.0769 2.4575 1.55621 2.4575C 2.03552 2.4575 2.42474 2.06302 2.42474 1.57793C 2.42474 1.09215 2.03483 0.696966 1.55621 0.696966Z"/>
<path id="path5_fill" d="M 14.7506 0.696966L 0.343837 0.696966C 0.154039 0.696966 6.55817e-08 0.540846 6.55817e-08 0.348483C 6.55817e-08 0.15612 0.154039 0 0.343837 0L 14.7499 0C 14.9397 0 15.0938 0.15612 15.0938 0.348483C 15.0938 0.540846 14.9404 0.696966 14.7506 0.696966Z"/>
</defs>
</svg>
