<svg width="477" height="524" viewBox="0 0 477 524" version="1.1" xmlns="https://www.w3.org/2000/svg" xmlns:xlink="https://www.w3.org/1999/xlink">
<title>Group 5</title>
<desc>Created using Figma</desc>
<g id="Canvas" transform="translate(-848 -1125)">
<g id="Group 5">
<g id="Group">
<g id="Subtract">
<use xlink:href="#path0_fill" transform="translate(945.953 1125.58)" fill="url(#paint0_linear)"/>
</g>
<g id="Subtract">
<use xlink:href="#path1_fill" transform="matrix(1 0 -0.000573217 1 848.189 1305.3)" fill="#FFFFFF"/>
<use xlink:href="#path1_fill" transform="matrix(1 0 -0.000573217 1 848.189 1305.3)" fill="url(#paint2_linear)"/>
<use xlink:href="#path1_fill" transform="matrix(1 0 -0.000573217 1 848.189 1305.3)" fill="url(#paint3_linear)"/>
</g>
</g>
<g id="startup">
<g id="Group">
<g id="Group">
<g id="Vector">
<use xlink:href="#path2_fill" transform="matrix(1 -1.90533e-08 -0.000573184 1 1025.96 1280.4)" fill="#FFFFFF"/>
</g>
</g>
</g>
<g id="Group">
<g id="Group">
<g id="Vector">
<use xlink:href="#path3_fill" transform="matrix(1 -1.90533e-08 -0.000573184 1 1052.07 1255.29)" fill="#FFFFFF"/>
</g>
</g>
</g>
<g id="Group">
<g id="Group">
<g id="Vector">
<use xlink:href="#path4_fill" transform="matrix(1 -1.90533e-08 -0.000573184 1 1059.05 1242.51)" fill="#FFFFFF"/>
</g>
</g>
</g>
<g id="Group">
<g id="Group">
<g id="Vector">
<use xlink:href="#path5_fill" transform="matrix(1 -1.90533e-08 -0.000573184 1 1029.25 1269.6)" fill="#FFFFFF"/>
</g>
</g>
</g>
<g id="Group">
<g id="Group">
<g id="Vector">
<use xlink:href="#path6_fill" transform="matrix(1 -1.11022e-16 -0.000573191 1 1025.99 1232.27)" fill="#FFFFFF"/>
</g>
</g>
</g>
</g>
<g id="atomic">
<g id="Group">
<g id="Group">
<g id="Vector">
<use xlink:href="#path7_fill" transform="matrix(1 -1.90533e-08 -0.000573184 1 1074.69 1528.38)" fill="#FFFFFF"/>
</g>
</g>
</g>
<g id="Group">
<g id="Group">
<g id="Vector">
<use xlink:href="#path8_fill" transform="matrix(1 -1.11022e-16 -0.000573191 1 1054.03 1508)" fill="#FFFFFF"/>
</g>
</g>
</g>
</g>
<g id="dna-structure">
<g id="Group">
<g id="Vector">
<use xlink:href="#path9_fill" transform="matrix(-0.870925 -0.491417 -0.491916 0.870643 1360.39 1528.02)" fill="#FFFFFF"/>
</g>
<g id="Vector">
<use xlink:href="#path10_fill" transform="matrix(-0.870925 -0.491417 -0.491916 0.870643 1328.57 1559.08)" fill="#FFFFFF"/>
</g>
</g>
</g>
<g id="telescope">
<g id="Group">
<g id="Vector">
<use xlink:href="#path11_fill" transform="matrix(1 -1.11022e-16 -0.000573191 1 1088.03 1338)" fill="#FFFFFF"/>
</g>
<g id="Vector">
<use xlink:href="#path12_fill" transform="matrix(1 -1.90533e-08 -0.000573184 1 1106.77 1362.74)" fill="#FFFFFF"/>
</g>
</g>
</g>
<g id="bacteria">
<g id="Group">
<g id="Vector">
<use xlink:href="#path13_fill" transform="matrix(0.00973825 0.999953 -0.999955 0.00945453 1220.44 1442)" fill="#FFFFFF"/>
</g>
<g id="Vector">
<use xlink:href="#path14_fill" transform="matrix(0.00973827 0.999953 -0.999955 0.00945453 1202.79 1473.3)" fill="#FFFFFF"/>
</g>
<g id="Vector">
<use xlink:href="#path15_fill" transform="matrix(0.00973827 0.999953 -0.999955 0.00945453 1208.16 1473.25)" fill="#FFFFFF"/>
</g>
<g id="Vector">
<use xlink:href="#path16_fill" transform="matrix(0.00973827 0.999953 -0.999955 0.00945453 1214.17 1448.38)" fill="#FFFFFF"/>
</g>
<g id="Vector">
<use xlink:href="#path17_fill" transform="matrix(0.00973827 0.999953 -0.999955 0.00945453 1193.97 1455.62)" fill="#FFFFFF"/>
</g>
<g id="Vector">
<use xlink:href="#path18_fill" transform="matrix(0.00973827 0.999953 -0.999955 0.00945453 1202.58 1460.19)" fill="#FFFFFF"/>
</g>
</g>
</g>
<g id="microscope (1)">
<g id="Group">
<g id="Group">
<g id="Vector">
<use xlink:href="#path19_fill" transform="matrix(1 -1.11022e-16 -0.000573191 1 1302.03 1213)" fill="#FFFFFF"/>
</g>
</g>
</g>
</g>
<g id="chemical-composition">
<g id="Vector">
<use xlink:href="#path20_fill" transform="matrix(1 -1.11022e-16 -0.000573191 1 1154.03 1156)" fill="#FFFFFF"/>
</g>
</g>
<g id="flask">
<g id="Group">
<g id="Group">
<g id="Vector">
<use xlink:href="#path21_fill" transform="translate(1272 1375.86)" fill="#FFFFFF"/>
</g>
</g>
</g>
<g id="Group">
<g id="Group">
<g id="Vector">
<use xlink:href="#path22_fill" transform="translate(1289.75 1365.14)" fill="#FFFFFF"/>
</g>
</g>
</g>
<g id="Group">
<g id="Group">
<g id="Vector">
<use xlink:href="#path23_fill" transform="translate(1299.87 1363)" fill="#FFFFFF"/>
</g>
</g>
</g>
</g>
<g id="brain">
<g id="Group">
<g id="Group">
<g id="Vector">
<use xlink:href="#path24_fill" transform="translate(1189 1569)" fill="#FFFFFF"/>
</g>
</g>
</g>
</g>
<g id="cube-molecule">
<g id="Group">
<g id="Vector">
<use xlink:href="#path25_fill" transform="translate(1194 1262)" fill="#FFFFFF"/>
</g>
</g>
</g>
</g>
</g>
<defs>
<linearGradient id="paint0_linear" x1="0" y1="0" x2="1" y2="0" gradientUnits="userSpaceOnUse" gradientTransform="matrix(0 512.809 -494.538 0 252.094 270.858)">
<stop offset="0" stop-color="#331D50"/>
<stop offset="1" stop-color="#247FAD"/>
</linearGradient>
<linearGradient id="paint2_linear" x1="0" y1="0" x2="1" y2="0" gradientUnits="userSpaceOnUse" gradientTransform="matrix(-2.20372e-17 199.422 -199.367 -1.12902e-14 101.629 105.332)">
<stop offset="0" stop-color="#331D50"/>
<stop offset="1" stop-color="#247FAD"/>
</linearGradient>
<linearGradient id="paint3_linear" x1="0" y1="0" x2="1" y2="0" gradientUnits="userSpaceOnUse" gradientTransform="matrix(150.913 143.45 -143.303 150.949 94.6388 -60.952)">
<stop offset="0" stop-color="#E87B88"/>
<stop offset="1" stop-color="#E71D36"/>
</linearGradient>
<path id="path0_fill" fill-rule="evenodd" d="M 242.703 522.815C 387.035 522.815 504.105 405.779 504.188 261.408C 504.271 117.036 387.334 0 243.003 0C 132.787 0 38.4672 68.248 0 164.8C 1.25085 164.76 2.50671 164.74 3.76727 164.74C 67.8802 164.74 119.824 216.68 119.788 280.751C 119.754 339.76 75.639 388.479 18.5818 395.808C 64.2266 471.9 147.506 522.815 242.703 522.815Z"/>
<path id="path1_fill" fill-rule="evenodd" d="M 101.629 203.314C 157.757 203.314 203.257 157.8 203.257 101.657C 203.257 45.5133 157.757 0 101.629 0C 45.5007 0 4.41157e-05 45.5133 0 101.657C 1.69195e-05 157.8 45.5007 203.314 101.629 203.314ZM 89.3085 57.3783L 89.3162 70.8783L 72.3162 70.8783L 72.3518 132.878L 89.3518 132.878L 89.3592 145.878L 97.3592 145.878L 97.3518 132.878L 104.352 132.878L 104.359 145.878L 112.359 145.878L 112.351 132.316C 114.882 131.926 117.213 131.331 119.344 130.534C 123.59 128.913 127.105 126.713 129.888 123.934C 132.741 121.156 134.862 117.856 136.252 114.035C 137.643 110.214 138.336 106.046 138.334 101.531C 138.331 96.3788 137.458 91.8923 135.715 88.0715C 134.042 84.2509 131.673 81.0669 128.609 78.5198C 125.613 75.9727 122.027 74.0623 117.849 72.7887C 116.07 72.2372 114.226 71.8052 112.317 71.4924L 112.308 57.3783L 104.308 57.3783L 104.316 70.8783L 97.3162 70.8783L 97.3085 57.3783L 89.3085 57.3783ZM 88.7408 121.416L 88.7184 82.3405L 100.415 82.3405C 104.453 82.3405 107.829 82.8325 110.545 83.8167C 113.331 84.7429 115.559 86.1033 117.231 87.898C 118.903 89.6925 120.088 91.8634 120.785 94.4105C 121.553 96.8998 121.937 99.7074 121.939 102.834C 121.941 106.249 121.42 109.143 120.377 111.517C 119.335 113.89 117.943 115.83 116.204 117.335C 114.464 118.782 112.48 119.824 110.253 120.461C 108.025 121.098 105.728 121.416 103.361 121.416L 88.7408 121.416Z"/>
<path id="path2_fill" d="M 1.02185 1.98098C 1.5862 1.98098 2.04369 1.53752 2.04369 0.99049C 2.04369 0.443458 1.5862 0 1.02185 0C 0.457496 0 0 0.443458 0 0.99049C 0 1.53752 0.457496 1.98098 1.02185 1.98098Z"/>
<path id="path3_fill" d="M 1.01982 1.97704C 1.58304 1.97704 2.03963 1.53446 2.03963 0.988519C 2.03963 0.442575 1.58304 0 1.01982 0C 0.456587 0 0 0.442575 0 0.988519C 0 1.53446 0.456587 1.97704 1.01982 1.97704Z"/>
<path id="path4_fill" d="M 7.40765 1.2323C 6.58784 0.437548 5.49784 -1.14179e-07 4.33846 -1.14179e-07C 3.17908 -1.14179e-07 2.08897 0.437744 1.26926 1.2323C -0.423086 2.87281 -0.423086 5.54201 1.26926 7.18242C 2.11558 8.00267 3.22682 8.41265 4.33846 8.41265C 5.44979 8.41265 6.56153 8.00248 7.40765 7.18242C 9.1 5.54191 9.1 2.87271 7.40765 1.2323ZM 5.96559 5.78441C 5.06838 6.654 3.60843 6.654 2.71142 5.78441C 1.81421 4.91483 1.81421 3.49979 2.71142 2.63011C 3.14606 2.20881 3.72382 1.97684 4.33846 1.97684C 4.95309 1.97684 5.53085 2.20881 5.96549 2.63011C 6.8627 3.49979 6.8627 4.91483 5.96559 5.78441Z"/>
<path id="path5_fill" d="M 9.45248 3.03585C 8.94826 2.79246 8.33617 2.99144 8.08508 3.48009L 6.87044 5.84456C 6.34225 6.87256 5.27998 7.56 4.09784 7.63837L 2.68514 7.7321C 2.44633 7.74756 2.2893 7.63226 2.21667 7.56187C 2.14404 7.49147 2.02479 7.33896 2.04105 7.10768L 2.13775 5.73842C 2.2187 4.59266 2.9279 3.56289 3.98835 3.05091L 6.42757 1.87355C 6.93179 1.63016 7.13697 1.03675 6.88588 0.548106C 6.63489 0.0594588 6.02269 -0.139527 5.51848 0.103861L 3.07925 1.28122C 1.3736 2.10453 0.233109 3.7606 0.10289 5.60334L 0.00619019 6.97259C -0.0460195 7.71172 0.233922 8.43598 0.774302 8.95977C 1.27182 9.44202 1.94475 9.71042 2.64359 9.71042C 2.70362 9.71042 2.76406 9.70845 2.82439 9.70441L 4.2371 9.61068C 6.13819 9.48455 7.84668 8.37917 8.69605 6.72566L 9.91069 4.36129C 10.1618 3.87254 9.9566 3.27924 9.45248 3.03585Z"/>
<path id="path6_fill" d="M 51.3008 0.658449C 50.8223 0.201505 50.163 -0.0374529 49.4935 0.00478561L 48.5439 0.0634666C 40.03 0.590316 32.0621 4.57383 26.6834 10.9927L 24.4484 13.6598L 18.5993 13.4933C 18.5894 13.4931 18.5793 13.493 18.5695 13.493C 13.9307 13.493 9.56962 15.2439 6.28945 18.4233L 0.298744 24.2303C 0.013825 24.5065 -0.0766786 24.9195 0.0679646 25.284C 0.212608 25.6486 0.565074 25.8965 0.967515 25.9164L 13.6486 26.5479L 13.1316 27.1649C 12.871 27.476 12.8298 27.9086 13.0273 28.2605C 13.226 28.6145 13.4342 28.963 13.6514 29.3058L 10.6442 32.7663C 10.3871 33.0622 10.3317 33.4763 10.5023 33.826C 11.1592 35.1715 12.031 36.3803 13.0939 37.4191C 14.1826 38.4832 15.4556 39.3534 16.8774 40.0056C 17.0164 40.0694 17.1654 40.1007 17.3135 40.1007C 17.5432 40.1007 17.7709 40.0254 17.9562 39.8798C 18.604 39.3704 19.3509 38.7662 20.0733 38.1819C 20.5882 37.7654 21.115 37.3394 21.6073 36.9466C 21.9012 37.118 22.1987 37.2842 22.5007 37.4434C 22.6534 37.5239 22.8209 37.5636 22.9878 37.5636C 23.2098 37.5636 23.4305 37.4935 23.6131 37.356L 24.3082 36.8332L 24.9625 49.1769C 24.9833 49.567 25.2389 49.9087 25.6149 50.0489C 25.734 50.0932 25.8577 50.1148 25.9806 50.1148C 26.2462 50.1148 26.5071 50.0141 26.7019 49.8252L 32.6927 44.0182C 35.9729 40.8387 37.7792 36.6115 37.7792 32.115L 37.7792 26.7003L 40.1425 24.9227C 47.2253 19.5951 51.5389 11.5615 51.9773 2.88163L 52.0016 2.40057C 52.0347 1.75035 51.7791 1.11549 51.3008 0.658449ZM 3.36266 24.0562L 7.73161 19.8213C 10.623 17.0187 14.4664 15.4737 18.5548 15.4699L 22.8296 15.5916L 15.2409 24.6478L 3.36266 24.0562ZM 18.7666 36.664C 18.2343 37.0944 17.6885 37.5359 17.1821 37.9397C 16.2025 37.4255 15.3163 36.7838 14.5419 36.0269C 13.7919 35.2938 13.1535 34.4592 12.6387 33.5398L 14.8405 31.0062C 15.5062 31.8719 16.2349 32.692 17.0221 33.4603C 17.0227 33.4608 17.0233 33.4613 17.0239 33.4619C 17.0241 33.4621 17.0243 33.4624 17.0245 33.4626C 17.0248 33.4629 17.0251 33.4631 17.0254 33.4634C 17.8983 34.3149 18.8371 35.0962 19.8331 35.8029C 19.4814 36.0858 19.1211 36.3773 18.7666 36.664ZM 35.74 32.115C 35.74 36.0834 34.1457 39.8141 31.2507 42.6203L 26.8818 46.8552L 26.2721 35.3561L 35.7399 28.2346L 35.7399 32.115L 35.74 32.115ZM 49.9405 2.78505C 49.5312 10.8879 45.5044 18.3874 38.8925 23.3608L 22.8984 35.3913C 21.5721 34.6401 20.3358 33.7531 19.2043 32.7481L 24.5966 27.5214C 24.9947 27.1354 24.9947 26.5094 24.5966 26.1234C 24.1983 25.7373 23.5526 25.7373 23.1543 26.1234L 17.7671 31.3452C 16.7767 30.2823 15.8995 29.1258 15.1526 27.8889L 28.2666 12.2391C 33.2876 6.24703 40.7258 2.52827 48.6737 2.03657L 49.6233 1.97789C 49.7477 1.9704 49.831 2.03027 49.8694 2.06689C 49.9077 2.10342 49.971 2.18288 49.9649 2.30408L 49.9405 2.78505Z"/>
<path id="path7_fill" d="M 6.69467 -4.5002e-07C 3.0033 -4.5002e-07 3.34784e-07 3.02779 3.34784e-07 6.74928C 3.34784e-07 10.471 3.0033 13.4987 6.69467 13.4987C 10.3863 13.4987 13.3896 10.4709 13.3896 6.74928C 13.3895 3.02779 10.3863 -4.5002e-07 6.69467 -4.5002e-07ZM 6.69467 10.9448C 4.39996 10.9448 2.5332 9.0627 2.5332 6.74928C 2.5332 4.43586 4.40007 2.55387 6.69467 2.55387C 8.98937 2.55387 10.8563 4.43596 10.8563 6.74928C 10.8563 9.0626 8.98947 10.9448 6.69467 10.9448Z"/>
<path id="path8_fill" d="M 51.834 15.4603C 52.327 11.8076 51.7611 8.7006 50.197 6.40561C 50.453 5.83594 50.5967 5.20451 50.5967 4.53949C 50.5967 2.03642 48.5769 8.39882e-09 46.0939 8.39882e-09C 44.4161 8.39882e-09 42.9506 0.930755 42.176 2.30625C 37.9341 2.09254 32.7405 3.66393 27.3646 6.79495C 18.1859 1.44708 9.87572 0.804695 5.56484 5.15228C 3.69127 7.04113 2.72091 9.7438 2.72538 13.009C 1.12394 13.7054 0 15.3121 0 17.1791C 0 19.6822 2.01994 21.7186 4.50276 21.7186C 4.52886 21.7186 4.55456 21.717 4.58057 21.7165C 5.27311 23.4922 6.1491 25.3065 7.19411 27.1298C 1.88951 36.3832 1.25243 44.7612 5.56463 49.1073C 7.46705 51.0257 10.1473 51.9728 13.3379 51.9727C 17.378 51.9726 22.2361 50.4527 27.3644 47.4648C 32.4932 50.453 37.3508 51.9727 41.3913 51.9727C 44.5818 51.9727 47.2629 51.0257 49.1655 49.1076C 53.4774 44.7604 52.8392 36.382 47.5332 27.1291C 49.867 23.0561 51.3515 19.0351 51.834 15.4603ZM 46.0939 2.55387C 47.1799 2.55387 48.0635 3.44469 48.0635 4.53949C 48.0635 5.6343 47.1799 6.52512 46.0939 6.52512C 45.008 6.52512 44.1244 5.6343 44.1244 4.53949C 44.1244 3.44469 45.0079 2.55387 46.0939 2.55387ZM 41.6021 4.84087C 41.7566 7.20386 43.7116 9.07909 46.0939 9.07909C 46.9564 9.07909 47.7627 8.83291 48.4482 8.40731C 49.3858 10.1236 49.6889 12.4122 49.3239 15.1161C 48.9323 18.0186 47.7919 21.2802 46.0067 24.6422C 43.9715 21.5304 41.5257 18.5262 38.7123 15.6897C 35.8991 12.8535 32.9183 10.3871 29.83 8.33358C 34.1543 5.99589 38.238 4.78342 41.6021 4.84087ZM 4.50276 19.1647C 3.41681 19.1647 2.5332 18.274 2.5332 17.1791C 2.5332 16.0843 3.41681 15.1935 4.50276 15.1935C 5.58871 15.1935 6.47232 16.0843 6.47232 17.1791C 6.47242 18.2739 5.58881 19.1647 4.50276 19.1647ZM 7.0063 20.9502C 8.21109 20.1347 9.00562 18.7487 9.00562 17.1791C 9.00562 14.9361 7.38305 13.0689 5.2594 12.7049C 5.31069 10.2717 6.02548 8.29969 7.35613 6.95808C 10.595 3.69189 17.3526 4.26617 24.8971 8.33491C 21.8094 10.3881 18.8295 12.8541 16.0169 15.6897C 13.2039 18.5257 10.7577 21.5302 8.7211 24.6432C 8.05954 23.3973 7.48696 22.1629 7.0063 20.9502ZM 7.35582 47.3015C 4.11606 44.0363 4.6857 37.2235 8.72151 29.6177C 10.758 32.7304 13.2041 35.7346 16.0168 38.5703C 18.8295 41.4059 21.8094 43.8719 24.897 45.9251C 17.3525 49.9935 10.595 50.5678 7.35582 47.3015ZM 17.8082 36.7643C 14.7905 33.722 12.2162 30.484 10.1472 27.1298C 12.216 23.7758 14.7904 20.5379 17.8082 17.4954C 20.8259 14.4531 24.0376 11.8577 27.3647 9.77196C 30.6916 11.8578 33.9034 14.4531 36.9211 17.4954C 39.9398 20.5388 42.5137 23.7766 44.5809 27.1298C 42.5138 30.4829 39.9399 33.7209 36.9211 36.7643C 33.9034 39.8066 30.6916 42.4019 27.3647 44.4877C 24.0377 42.4019 20.8258 39.8066 17.8082 36.7643ZM 47.3742 47.3016C 44.1343 50.5676 37.3764 49.9935 29.832 45.925C 32.9196 43.8719 35.8995 41.4059 38.7122 38.5702C 41.5258 35.7337 43.9714 32.7295 46.0065 29.6179C 50.0432 37.2232 50.6136 44.036 47.3742 47.3016Z"/>
<path id="path9_fill" d="M 34.6391 46.3974C 34.6279 40.774 32.9337 35.9003 29.4603 31.499C 26.464 27.7019 22.5274 24.7088 18.7203 21.8141C 11.452 16.2877 4.58654 11.0676 4.58654 0.753302C 4.58654 0.337278 4.24428 0 3.82211 0L 0.764423 0C 0.342257 0 -3.60812e-07 0.337278 -3.60812e-07 0.753302C -3.60812e-07 6.40015 1.69396 11.2919 5.17861 15.7078C 7.56391 18.7306 10.5455 21.2434 13.5831 23.6033C 10.7418 25.809 7.62792 28.3952 5.17861 31.4991C 1.69396 35.915 -3.60812e-07 40.8067 -3.60812e-07 46.4536C -3.60812e-07 46.8696 0.342257 47.2069 0.764423 47.2069L 3.82211 47.2069C 4.24428 47.2069 4.58654 46.8696 4.58654 46.4536C 4.58654 45.6714 4.62588 44.9193 4.70089 44.1937L 10.137 44.1937C 10.5591 44.1937 10.9014 43.8564 10.9014 43.4404C 10.9014 43.0244 10.5591 42.6871 10.137 42.6871L 4.91432 42.6871C 5.20908 41.071 5.69638 39.5928 6.34654 38.216L 25.2776 38.216C 25.6998 38.216 26.0421 37.8787 26.0421 37.4627C 26.0421 37.0467 25.6998 36.7094 25.2776 36.7094L 7.14389 36.7094C 8.08668 35.108 9.25951 33.6395 10.6099 32.2382L 19.9411 32.2382C 20.3633 32.2382 20.7056 31.9009 20.7056 31.4849C 20.7056 31.0689 20.3633 30.7316 19.9411 30.7316L 12.1529 30.7316C 13.7173 29.2858 15.4605 27.8883 17.32 26.4609C 24.0452 31.6147 30.0526 36.8053 30.0526 46.4536C 30.0526 46.8696 30.3949 47.2069 30.817 47.2069L 33.8747 47.2069C 34.2989 47.2069 34.6412 46.8696 34.6412 46.4536C 34.6412 46.4347 34.6405 46.4159 34.6391 46.3974L 34.6391 46.3974ZM 9.75057 30.9192C 9.71734 30.9479 9.68646 30.9792 9.65874 31.0131C 8.81553 31.8741 8.02552 32.7684 7.30921 33.7124C 6.48985 34.7923 5.79188 35.9051 5.21184 37.0558C 5.18177 37.1018 5.157 37.1513 5.13753 37.2035C 4.1921 39.1178 3.57332 41.1381 3.27244 43.2893C 3.26612 43.32 3.26235 43.3515 3.25991 43.3834C 3.15758 44.1393 3.09357 44.9109 3.06911 45.7003L 1.53975 45.7003C 1.68418 40.7177 3.27326 36.3679 6.38548 32.4239C 8.81604 29.344 11.9764 26.758 14.8237 24.5583C 15.1892 24.8376 15.5546 25.1158 15.9188 25.3927C 15.9698 25.4316 16.0208 25.4703 16.0718 25.5091C 13.8166 27.2443 11.6477 28.9968 9.75057 30.9192L 9.75057 30.9192ZM 31.5697 45.7003C 31.4246 41.0375 29.9213 36.9641 26.9863 33.2699C 24.2471 29.8221 20.6553 27.0911 16.8524 24.1997C 13.121 21.3624 9.26246 18.4287 6.38548 14.783C 3.27326 10.839 1.68418 6.48924 1.53975 1.5066L 3.06941 1.5066C 3.21455 6.16944 4.71781 10.2428 7.65289 13.937C 10.3921 17.3848 13.9838 20.1158 17.7866 23.007C 21.518 25.8442 25.3765 28.7779 28.2536 32.4239C 31.3659 36.3679 32.955 40.7177 33.0994 45.7003L 31.5697 45.7003L 31.5697 45.7003Z"/>
<path id="path10_fill" d="M 15.091 0L 0.764423 0C 0.342257 0 -2.86161e-07 0.337278 -2.86161e-07 0.753302C -2.86161e-07 1.16933 0.342257 1.5066 0.764423 1.5066L 15.091 1.5066C 15.5132 1.5066 15.8555 1.16933 15.8555 0.753302C 15.8555 0.337278 15.5132 0 15.091 0Z"/>
<path id="path11_fill" d="M 59.3642 12.2229L 54.5405 0.585457C 54.3401 0.101817 53.7852 -0.12806 53.3014 0.072498L 37.3245 6.686C 36.8406 6.8863 36.6107 7.44084 36.8112 7.92435L 36.9371 8.22791L 10.8672 19.0191C 10.6348 19.1153 10.4502 19.2998 10.3539 19.5321C 10.2576 19.7644 10.2576 20.0252 10.3539 20.2575L 10.4798 20.5612L 0.585794 24.6569C 0.101832 24.8572 -0.128072 25.4117 0.0724932 25.8952L 2.94086 32.8155C 3.03709 33.0477 3.22172 33.2322 3.45416 33.3284C 3.57037 33.3764 3.6938 33.4006 3.8171 33.4006C 3.9404 33.4006 4.06382 33.3766 4.18004 33.3284L 14.0741 29.233L 14.2 29.5366C 14.3512 29.9016 14.7043 30.122 15.0766 30.122C 15.1975 30.122 15.3205 30.0988 15.4391 30.0496L 38.8801 20.3465C 39.3641 20.1462 39.594 19.5916 39.3934 19.1081C 39.193 18.6245 38.6383 18.3946 38.1542 18.5951L 15.5894 27.9356L 12.4692 20.4081L 37.663 9.9796L 41.6347 19.5621C 41.7309 19.7943 41.9155 19.9788 42.148 20.075C 42.2642 20.123 42.3876 20.1472 42.5109 20.1472C 42.6342 20.1472 42.7576 20.1232 42.8739 20.075L 46.3784 18.6243C 46.3793 18.624 58.8508 13.4615 58.8508 13.4615C 59.0832 13.3653 59.2679 13.1808 59.3641 12.9486C 59.4606 12.716 59.4606 12.4552 59.3642 12.2229L 59.3642 12.2229ZM 13.3483 27.4815L 4.3304 31.2143L 2.18804 26.0454L 11.2059 22.3126L 13.3483 27.4815ZM 43.0242 17.9607L 39.0525 8.37842C 39.0524 8.3783 38.9267 8.07474 38.9267 8.07474L 40.6793 7.34922L 44.7768 17.2352L 43.0242 17.9607ZM 46.5293 16.5098L 42.4318 6.62382L 53.1513 2.18664L 57.2489 12.0726L 46.5293 16.5098L 46.5293 16.5098Z"/>
<path id="path12_fill" d="M 16.9721 15.7258L 16.9885 15.7258C 17.5124 15.7258 17.937 15.3014 17.937 14.778C 17.937 14.2545 17.5124 13.8302 16.9885 13.8302L 16.4446 13.8302L 15.5828 10.7328C 15.4687 10.3227 15.095 10.0389 14.669 10.0389L 11.9189 10.0389L 11.9189 3.11234L 15.0318 1.82369C 15.5158 1.62338 15.7457 1.06885 15.5451 0.585334C 15.3445 0.10182 14.7899 -0.127932 14.3059 0.072374L 10.6061 1.60392C 10.6033 1.60506 10.6004 1.6062 10.5976 1.60746L 6.90878 3.13446C 6.42481 3.33477 6.19491 3.8893 6.39548 4.37282C 6.54672 4.73779 6.8998 4.95819 7.2721 4.95819C 7.39299 4.95819 7.51604 4.93494 7.63466 4.88578L 10.0218 3.89764L 10.0218 10.039L 7.27172 10.039C 6.8458 10.039 6.47211 10.3228 6.35792 10.7329L 5.49609 13.8303L 4.95219 13.8303C 4.42827 13.8303 4.00374 14.2546 4.00374 14.7781C 4.00374 15.3015 4.42827 15.7259 4.95219 15.7259L 4.96863 15.7259L 0.0349233 33.458C -0.105447 33.9623 0.189963 34.4848 0.694664 34.625C 1.19911 34.7649 1.72215 34.47 1.86239 33.9657L 6.93748 15.7259L 10.0218 15.7259L 10.0218 33.7118C 10.0218 34.2353 10.4464 34.6597 10.9703 34.6597C 11.4942 34.6597 11.9187 34.2353 11.9187 33.7118L 11.9187 15.7258L 15.0031 15.7258L 20.0782 33.9656C 20.1949 34.385 20.5762 34.6598 20.9915 34.6598C 21.0756 34.6598 21.1611 34.6485 21.246 34.6249C 21.7507 34.4846 22.0462 33.9621 21.9058 33.4578L 16.9721 15.7258L 16.9721 15.7258ZM 7.4652 13.8302L 7.99266 11.9345L 13.9484 11.9345L 14.4759 13.8302L 7.4652 13.8302Z"/>
<path id="path13_fill" d="M 45.4529 15.1763L 43.8342 15.1763C 43.6359 12.3131 42.5382 9.50153 40.542 7.20598L 41.6825 6.06447C 42.0525 5.69404 42.0525 5.09343 41.6825 4.72313C 41.3125 4.3527 40.7125 4.35258 40.3425 4.72301L 39.2024 5.86414C 36.9683 3.91436 34.1967 2.765 31.2397 2.5624L 31.2397 0.948522C 31.2397 0.424558 30.8154 0 30.2921 0C 29.7688 0 29.3446 0.424558 29.3446 0.948522L 29.3446 2.56227C 26.3876 2.765 23.616 3.91423 21.3819 5.86401L 20.2419 4.72288C 19.8719 4.35258 19.2719 4.35245 18.9019 4.72301C 18.5319 5.09343 18.5319 5.69404 18.9019 6.06434L 20.0186 7.18208L 14.2667 12.9399L 13.1501 11.8221C 12.7801 11.4518 12.1801 11.4518 11.8102 11.8221C 11.4401 12.1927 11.4401 12.7932 11.8102 13.1636L 12.9268 14.2813L 7.17468 20.0391L 6.05795 18.9214C 5.68789 18.5511 5.0879 18.5509 4.71797 18.9215C 4.34792 19.2919 4.34792 19.8925 4.71797 20.2628L 5.85833 21.4043C 3.86213 23.7 2.76448 26.5116 2.56625 29.3748L 0.947561 29.3748C 0.424255 29.3748 2.08204e-07 29.7994 2.08204e-07 30.3234C 2.08204e-07 30.8473 0.424255 31.2719 0.947561 31.2719L 2.56625 31.2719C 2.76448 34.1351 3.86226 36.9467 5.85833 39.2424L 2.48451 42.6196C 1.2317 43.8737 0.541752 45.5411 0.541752 47.3147C 0.541752 49.088 1.2317 50.7555 2.48451 52.0096C 3.73731 53.2635 5.40299 53.9542 7.17468 53.9542C 8.94637 53.9542 10.6121 53.2635 11.8649 52.0095L 12.7581 51.1153C 14.6053 49.2661 17.6111 49.2662 19.4584 51.1152C 21.3056 52.9644 21.3056 55.9733 19.4584 57.8223C 19.0883 58.1928 19.0883 58.7933 19.4584 59.1637C 19.6433 59.3489 19.8859 59.4414 20.1283 59.4414C 20.3708 59.4414 20.6134 59.3489 20.7983 59.1637C 23.3844 56.5749 23.3844 52.3627 20.7983 49.7737C 18.2121 47.185 14.0043 47.185 11.418 49.7739L 10.5248 50.668C 9.62987 51.5638 8.44012 52.057 7.17468 52.057C 5.90924 52.057 4.71936 51.5638 3.82461 50.668C 2.92973 49.7723 2.437 48.5814 2.437 47.3145C 2.437 46.0476 2.92986 44.8566 3.82461 43.9609L 7.19805 40.5841C 9.43215 42.5339 12.2037 43.683 15.1607 43.8857L 15.1607 45.4996C 15.1607 46.0235 15.585 46.4481 16.1083 46.4481C 16.6316 46.4481 17.0558 46.0235 17.0558 45.4996L 17.0558 43.8857C 20.0129 43.6831 22.7844 42.5339 25.0185 40.5841L 26.1585 41.7252C 26.3435 41.9104 26.586 42.0029 26.8285 42.0029C 27.0709 42.0029 27.3135 41.9104 27.4985 41.7251C 27.8685 41.3547 27.8685 40.7541 27.4985 40.3838L 26.3819 39.266L 32.1337 33.5082L 33.2504 34.626C 33.4354 34.8111 33.678 34.9037 33.9204 34.9037C 34.1629 34.9037 34.4054 34.8111 34.5904 34.6258C 34.9605 34.2554 34.9605 33.6549 34.5904 33.2845L 33.4738 32.1668L 39.2256 26.409L 40.3424 27.5267C 40.5273 27.7119 40.7699 27.8045 41.0123 27.8045C 41.2548 27.8045 41.4974 27.7119 41.6823 27.5266C 42.0524 27.1562 42.0524 26.5556 41.6823 26.1853L 40.542 25.0438C 42.5382 22.7481 43.6358 19.9365 43.8341 17.0733L 45.4527 17.0733C 45.976 17.0733 46.4003 16.6487 46.4003 16.1247C 46.4003 15.6008 45.9762 15.1763 45.4529 15.1763L 45.4529 15.1763ZM 38.5556 24.3969L 24.3718 38.5953C 22.1645 40.8049 19.2298 42.0218 16.1082 42.0218C 12.9866 42.0218 10.0519 40.8049 7.84467 38.5953C 3.28816 34.0342 3.28816 26.6125 7.84467 22.0514L 22.0285 7.85287C 24.2353 5.6437 27.1692 4.42694 30.2901 4.42631C 33.4149 4.42681 36.3488 5.64358 38.5556 7.85287C 43.1121 12.414 43.1121 19.8357 38.5556 24.3969L 38.5556 24.3969Z"/>
<path id="path14_fill" d="M 0.94756 1.89704C 1.47088 1.89704 1.89512 1.47238 1.89512 0.948522C 1.89512 0.424668 1.47088 0 0.94756 0C 0.424237 0 0 0.424668 0 0.948522C 0 1.47238 0.424237 1.89704 0.94756 1.89704Z"/>
<path id="path15_fill" d="M 0.94756 1.89704C 1.47088 1.89704 1.89512 1.47238 1.89512 0.948522C 1.89512 0.424668 1.47088 0 0.94756 0C 0.424237 0 0 0.424668 0 0.948522C 0 1.47238 0.424237 1.89704 0.94756 1.89704Z"/>
<path id="path16_fill" d="M 17.0474 2.86613C 16.6773 3.23669 16.6773 3.83717 17.0474 4.20759C 17.4174 4.5779 18.0174 4.5779 18.3874 4.20759C 21.4661 1.12578 26.4755 1.12566 29.5543 4.20747C 32.633 7.2894 32.633 12.3042 29.5543 15.386L 15.3706 29.5845C 13.8818 31.0748 11.8988 31.8954 9.78704 31.8954C 7.67525 31.8954 5.69232 31.0748 4.20364 29.5845C 2.71495 28.0944 1.89512 26.1093 1.89512 23.9954C 1.89512 21.8815 2.71495 19.8964 4.20364 18.4062L 15.7074 6.89065C 16.0775 6.52009 16.0775 5.91961 15.7074 5.54918C 15.3374 5.17888 14.7374 5.17888 14.3674 5.54918L 2.86366 17.0647C 1.01692 18.9133 -1.54225e-07 21.3747 -1.54225e-07 23.9955C -1.54225e-07 26.6164 1.01692 29.0777 2.86366 30.9261C 4.71026 32.7747 7.16912 33.7927 9.78717 33.7927C 12.4052 33.7927 14.8641 32.7747 16.7107 30.9262L 30.8945 16.7277C 34.7122 12.906 34.7122 6.68792 30.8945 2.86626C 27.0768 -0.955399 20.8649 -0.955399 17.0474 2.86613L 17.0474 2.86613Z"/>
<path id="path17_fill" d="M 0.947561 1.89704C 1.47088 1.89704 1.89512 1.47237 1.89512 0.948521C 1.89512 0.424667 1.47088 0 0.947561 0C 0.424237 0 0 0.424667 0 0.948521C 0 1.47237 0.424237 1.89704 0.947561 1.89704Z"/>
<path id="path18_fill" d="M 3.06615 6.86316C 2.86729 7.06222 2.73652 7.07474 2.31391 7.08713C 1.79768 7.10231 1.0174 7.12533 0.277541 7.86581C -0.0925134 8.23623 -0.0925134 8.83684 0.277541 9.20714C 0.462631 9.39242 0.705081 9.48499 0.947656 9.48499C 1.19011 9.48499 1.43268 9.39242 1.61764 9.20727C 1.81651 9.0082 1.94714 8.99568 2.36976 8.98329C 2.88611 8.96811 3.6664 8.9451 4.40638 8.20437C 5.14611 7.46389 5.16923 6.68281 5.18439 6.16593C 5.1969 5.74289 5.20928 5.61212 5.40827 5.41293C 5.60713 5.21399 5.73777 5.20147 6.16025 5.18895C 6.67648 5.17377 7.45677 5.15076 8.19663 4.41028C 8.93635 3.6698 8.95935 2.88872 8.97451 2.37197C 8.98689 1.94893 8.9994 1.81816 9.19826 1.61909C 9.56832 1.24866 9.56819 0.648062 9.19813 0.27776C 8.82808 -0.0925433 8.22809 -0.0926708 7.85816 0.277885C 7.11843 1.01836 7.09543 1.79944 7.08027 2.3162C 7.06789 2.73924 7.05538 2.87001 6.85665 3.06894C 6.65779 3.268 6.52715 3.2804 6.10466 3.29292C 5.5883 3.3081 4.80802 3.33111 4.06817 4.07172C 3.32844 4.8122 3.30531 5.59327 3.29015 6.11015C 3.27765 6.5332 3.26514 6.66397 3.06615 6.86316L 3.06615 6.86316Z"/>
<path id="path19_fill" d="M 42.184 50.1671L 41.1924 47.1572C 41.0869 46.8373 40.9669 46.5259 40.8358 46.2212C 44.4027 43.1853 46.4347 38.7783 46.4347 34.0148C 46.4347 30.2544 45.122 26.6037 42.7384 23.7349C 40.6665 21.2412 37.8973 19.4634 34.839 18.6397L 38.6618 12.4583C 38.7874 12.2553 38.829 12.0096 38.7774 11.7752C 38.7258 11.5409 38.5854 11.3371 38.3869 11.2086L 36.9387 10.2718L 37.8399 8.81463L 39.288 9.75154C 39.4349 9.84643 39.5987 9.89191 39.7605 9.89191C 40.054 9.89191 40.3412 9.74284 40.5098 9.47021L 42.3791 6.44744C 42.5047 6.24442 42.5463 5.99871 42.4947 5.76437C 42.4431 5.53003 42.3026 5.3262 42.1041 5.19777L 34.2859 0.140172C 33.8726 -0.126768 33.3257 -0.00124488 33.0642 0.421498L 31.1949 3.44427C 31.0693 3.64729 31.0278 3.893 31.0793 4.12734C 31.1309 4.36168 31.2713 4.56551 31.4698 4.69394L 32.918 5.63072L 32.0168 7.08793L 30.5686 6.15103C 30.1554 5.88397 29.6082 6.00961 29.3469 6.43236L 16.5923 27.0567L 15.5164 26.3608C 15.3179 26.2325 15.0777 26.1898 14.8484 26.2427C 14.6193 26.2955 14.42 26.439 14.2944 26.6421L 12.4251 29.665C 12.1637 30.0877 12.2867 30.6471 12.7001 30.9145L 24.1668 38.3324C 24.3137 38.4273 24.4775 38.4728 24.6394 38.4728C 24.9329 38.4728 25.22 38.3236 25.3887 38.0511L 27.258 35.0283C 27.5195 34.6055 27.3964 34.0461 26.983 33.7787L 25.9072 33.0828L 29.053 27.9962C 29.6462 27.8059 30.2636 27.7093 30.8927 27.7093C 34.2923 27.7093 37.0581 30.538 37.0581 34.015C 37.0581 36.5716 35.5287 38.8846 33.2265 39.851C 32.4709 39.6815 31.6898 39.5907 30.8926 39.5907L 12.7634 39.5907C 9.43672 39.5907 6.73008 42.3589 6.73008 45.7615C 6.73008 46.2617 7.12652 46.6672 7.61562 46.6672L 20.7683 46.6672C 20.7067 46.8288 20.6476 46.9918 20.5929 47.1574L 19.6167 50.1204L 4.75744 50.1204C 2.13428 50.1204 3.11542e-08 52.3032 3.11542e-08 54.9861L 3.11542e-08 58.4917C 3.11542e-08 58.9919 0.396434 59.3974 0.88554 59.3974L 45.4042 59.3974C 45.8934 59.3974 46.2898 58.9919 46.2898 58.4917L 46.2898 54.9859C 46.2899 52.5291 44.5 50.4931 42.184 50.1671ZM 34.0877 2.15528L 40.4091 6.24454L 39.4865 7.73643L 38.0389 6.79988C 38.0387 6.79976 38.0385 6.79965 38.0384 6.79953L 34.6134 4.58384C 34.6132 4.58373 34.6128 4.5835 34.6126 4.58338L 33.1653 3.64706L 34.0877 2.15528ZM 36.3431 7.84629L 35.442 9.3035L 33.5138 8.05616L 34.4149 6.59895L 36.3431 7.84629ZM 24.3653 36.3173L 14.3954 29.8678L 15.3179 28.3758L 16.3925 29.071C 16.3929 29.0713 16.3932 29.0716 16.3938 29.0718L 24.212 34.1294L 24.2121 34.1295L 25.2876 34.8254L 24.3653 36.3173ZM 24.4104 32.1143L 24.1995 31.9779L 18.0891 28.025L 30.3703 8.16625L 31.8178 9.10269C 31.8181 9.1028 31.8182 9.10292 31.8184 9.10304L 35.2434 11.3187C 35.2436 11.3188 35.2439 11.319 35.2441 11.3191L 36.6915 12.2554L 32.6672 18.7629C 32.6672 18.7629 32.6671 18.7631 32.667 18.7631L 29.8902 23.2532L 24.4104 32.1143ZM 38.8292 34.0148C 38.8292 29.539 35.2689 25.8975 30.8926 25.8975C 30.7071 25.8975 30.5224 25.904 30.3386 25.9172L 33.8115 20.3014L 33.8398 20.2556C 36.7658 20.9119 39.4287 22.5487 41.389 24.9079C 43.5008 27.4494 44.6637 30.6837 44.6637 34.0148C 44.6637 38.1131 42.966 41.9153 39.9724 44.5958C 39.9617 44.5793 39.9505 44.5634 39.9397 44.5468C 39.8873 44.4662 39.8341 44.3864 39.7798 44.3075C 39.7621 44.2818 39.744 44.2562 39.7261 44.2307C 39.6661 44.1451 39.6053 44.0602 39.5431 43.9764C 39.5337 43.9639 39.5241 43.9514 39.5147 43.9388C 38.4483 42.5171 37.064 41.3832 35.4855 40.6307C 37.5431 39.1304 38.8292 36.6751 38.8292 34.0148ZM 29.3864 41.5308C 31.5194 41.1663 33.768 41.6061 35.6168 42.7548C 37.4314 43.8823 38.8361 45.6777 39.5141 47.7355L 40.2998 50.1203L 21.4857 50.1203L 22.2714 47.7355C 22.448 47.1994 22.6705 46.6893 22.9308 46.2067C 22.9322 46.2043 22.9339 46.2023 22.9351 46.1998C 24.274 43.7251 26.6256 42.0353 29.2936 41.5478C 29.3246 41.5422 29.3553 41.5361 29.3864 41.5308ZM 8.5936 44.8554C 9.00218 42.8849 10.7165 41.402 12.7631 41.402L 24.9442 41.402C 23.6244 42.2846 22.4957 43.4589 21.6513 44.8554L 8.5936 44.8554ZM 44.5188 57.5858L 44.5187 57.5858L 1.77131 57.5858L 1.77131 54.9859C 1.77131 53.3018 3.1109 51.9318 4.75755 51.9318L 20.2529 51.9318L 41.5327 51.9318C 43.1792 51.9318 44.5188 53.3018 44.5188 54.9859L 44.5188 57.5858Z"/>
<path id="path20_fill" d="M 52.0069 23.561L 50.6639 21.9018L 44.4686 26.7195L 36.3406 22.12L 36.3406 12.9534L 42.9157 7.84047L 41.5727 6.1813L 35.1682 11.1616L 26.896 6.48052L 26.896 -4.09381e-08L 24.7349 -4.09381e-08L 24.7349 6.87293L 17.1602 11.1594L 10.7584 6.1813L 9.41539 7.84047L 15.9837 12.948L 15.9837 21.9237L 6.53894 27.2685L 6.53894 37.7028L 0 42.7875L 1.343 44.4466L 7.74334 39.4697L 16.7173 44.548L 25.9888 39.3014L 35.2601 44.548L 45.4386 38.7881L 45.4386 28.6687L 52.0069 23.561ZM 18.1446 13.048L 26.1621 8.51106L 34.1794 13.048L 34.1794 22.12L 26.1604 26.6579L 18.1446 22.1219L 18.1446 13.048ZM 24.7348 37.5652L 16.7173 42.1023L 8.69995 37.5652L 8.69995 28.4913L 16.7173 23.9542L 24.7348 28.4913L 24.7348 37.5652ZM 43.2776 37.5652L 35.2601 42.1023L 27.2427 37.5652L 27.2427 28.4933L 35.262 23.9554L 43.2777 28.4915L 43.2777 37.5652L 43.2776 37.5652Z"/>
<path id="path21_fill" d="M 41.6945 44.6257L 28.5174 20.3743C 27.7651 18.9893 27.1488 16.5715 27.1488 15L 27.1488 6.42855C 27.1488 4.85719 27.9626 2.76785 28.9572 1.7857C 29.9519 0.803555 29.4636 -3.6478e-07 27.8721 -3.6478e-07L 14.128 -3.6478e-07C 12.5366 -3.6478e-07 12.0482 0.803555 13.0429 1.7857C 14.0375 2.76785 14.8513 4.85648 14.8513 6.42855L 14.8513 15C 14.8513 16.5714 14.2349 18.99 13.4827 20.3749L 0.305474 44.6257C -0.446836 46.0099 0.238895 47.1429 1.83027 47.1429L 40.1695 47.1429C 41.7611 47.1429 42.4468 46.01 41.6945 44.6257ZM 26.0971 2.14301C 25.4149 3.46652 24.9787 5.05371 24.9787 6.42867L 24.9787 13.2144L 17.0215 13.2144L 17.0215 6.42867C 17.0215 5.05371 16.5852 3.46652 15.9039 2.14301L 26.0971 2.14301ZM 2.5649 44.9999L 7.0288 36.7859L 12.6814 36.7859C 13.2804 36.7859 13.7665 36.3066 13.7665 35.7144C 13.7665 35.1223 13.2804 34.643 12.6814 34.643L 8.19281 34.643L 9.74656 31.7822C 9.76104 31.7822 9.77338 31.7858 9.78774 31.7858L 14.8514 31.7858C 15.4504 31.7858 15.9365 31.3065 15.9365 30.7144C 15.9365 30.1222 15.4504 29.6429 14.8514 29.6429L 10.9096 29.6429L 12.462 26.7858L 17.0215 26.7858C 17.6205 26.7858 18.1066 26.3065 18.1066 25.7143C 18.1066 25.1222 17.6205 24.6429 17.0215 24.6429L 13.6267 24.6429L 15.3954 21.3872C 16.2678 19.7808 16.9311 17.2622 17.007 15.3572L 24.9939 15.3572C 25.0692 17.2622 25.7325 19.7815 26.6056 21.3879L 39.4356 45L 2.5649 45L 2.5649 44.9999Z"/>
<path id="path22_fill" d="M 4.34023 -8.22544e-08C 1.94302 -8.22544e-08 7.3885e-07 1.91859 7.3885e-07 4.28566C 7.3885e-07 6.65273 1.94302 8.57133 4.34023 8.57133C 6.73745 8.57133 8.68047 6.65273 8.68047 4.28566C 8.68047 1.91859 6.73756 -8.22544e-08 4.34023 -8.22544e-08ZM 4.34023 6.42855C 3.14371 6.42855 2.17006 5.46715 2.17006 4.28566C 2.17006 3.10418 3.14371 2.14277 4.34023 2.14277C 5.53676 2.14277 6.51041 3.10418 6.51041 4.28566C 6.51041 5.46715 5.53676 6.42855 4.34023 6.42855Z"/>
<path id="path23_fill" d="M 3.61688 0C 1.6182 0 -1.44873e-07 1.59855 -1.44873e-07 3.57141C -1.44873e-07 5.54426 1.6182 7.14281 3.61688 7.14281C 5.61485 7.14281 7.23376 5.54426 7.23376 3.57141C 7.23388 1.59855 5.61485 0 3.61688 0ZM 3.61688 4.99992C 2.819 4.99992 2.17018 4.35926 2.17018 3.57141C 2.17018 2.78355 2.81888 2.14289 3.61688 2.14289C 4.41477 2.14289 5.06359 2.78355 5.06359 3.57141C 5.06359 4.35926 4.41477 4.99992 3.61688 4.99992Z"/>
<path id="path24_fill" d="M 48.3195 18.1426C 41.787 0.2047 25.1839 1.63223e-07 24.3674 1.63223e-07C 2.18443 0.818516 0.143063 14.1185 0.075053 14.6641L 0.075053 14.7323C -0.26519 19.1656 0.551413 22.5077 2.52467 24.6221C 4.02166 26.259 6.19914 27.1457 8.85289 27.1457C 9.19313 27.1457 9.46527 27.1457 9.80551 27.0775C 9.87352 28.8509 10.4179 30.2832 11.4386 31.4427C 12.9356 33.1478 15.4533 34.0345 18.7876 34.0345C 20.6248 34.0345 22.394 33.7617 23.5508 33.557L 27.6335 38.4678C 31.0357 41.6053 33.7576 39.1499 34.6422 37.9222C 35.799 36.2852 34.6422 33.557 34.6422 33.557C 37.7723 33.2842 40.4942 32.7386 42.6716 31.7837C 47.8431 29.6011 50.2928 23.6672 48.3195 18.1426ZM 45.4615 25.6452C 44.0325 25.7134 42.7397 25.1677 41.855 24.0083C 40.9024 22.7806 40.6302 21.2119 41.2427 19.7114C 41.5148 19.0293 41.1747 18.2109 40.4942 17.938C 39.8137 17.6652 38.9972 18.0062 38.7249 18.6883C 38.2486 19.916 38.1126 21.2119 38.3167 22.5078C 38.3167 22.5078 34.8463 22.0986 33.5535 24.8268C 32.9411 26.1909 33.0771 27.6915 33.9617 28.9191C 34.5741 29.7375 35.5948 29.3283 35.867 29.1919C 36.4794 28.7144 36.5475 27.896 36.1391 27.2822C 35.7309 26.7365 35.6627 25.3042 37.0237 25.3724L 39.3373 25.3043C 39.4734 25.4407 40.6302 27.2823 43.42 28.2371C 42.8757 28.6463 42.2633 29.0555 41.6508 29.3284C 39.3372 30.2832 36.2752 30.9653 32.6008 30.9653C 31.1718 30.9653 31.2399 32.3294 31.3079 32.7387C 31.512 33.4208 31.8523 34.2392 32.3286 35.0577C 33.4174 36.9674 31.1038 38.5362 29.7429 36.8311L 25.1158 31.3065C 24.8436 30.9654 24.5034 30.829 24.0951 30.829C 24.027 30.829 19.8082 32.0567 17.6987 31.4428L 17.9709 30.2833C 18.243 29.0556 19.1276 28.169 20.2845 27.828C 21.4413 27.487 22.6661 27.828 23.5507 28.6464C 24.0951 29.1921 24.9116 29.1921 25.4559 28.6464C 26.0003 28.1008 26.0003 27.2823 25.4559 26.7367C 24.8436 26.1229 24.0951 25.6454 23.2785 25.3044C 23.2785 25.3044 23.6867 21.4849 20.6247 20.189C 19.1277 19.5069 17.3585 19.7115 16.0656 20.6664C 15.4532 21.1439 15.3171 21.9623 15.7935 22.5761C 16.2698 23.19 17.0864 23.3264 17.6987 22.8489C 18.2431 22.4397 18.8555 22.4397 19.468 22.6443C 20.7608 23.1218 20.4887 24.9633 20.4887 24.9633C 20.1484 25.0315 16.474 25.2361 15.2492 29.6013L 14.9771 30.829C 14.3647 30.5562 13.7522 30.2833 13.344 29.7377C 11.7789 27.6234 12.4594 25.5771 12.4594 25.509C 13.2759 24.0766 13.1398 22.3715 12.0511 21.1438C 11.0304 19.9161 9.32925 19.4387 7.83225 19.9844C 7.15177 20.2572 6.74351 21.0075 7.01575 21.6895C 7.28788 22.3715 8.03648 22.6443 8.71687 22.5079C 10.7582 22.1668 10.0097 24.3494 10.0097 24.4176C 9.05711 24.6904 6.94764 25.236 4.49802 22.8489C 3.81754 22.1668 3.34127 21.1438 3.06904 19.9843C 3.95365 20.0524 5.38264 19.7115 6.26715 19.0976C 7.69614 18.1427 8.58075 16.5058 8.58075 14.7324C 8.58075 13.9822 7.96837 13.3684 7.21987 13.3684C 6.47138 13.3684 5.859 13.9822 5.859 14.7324C 5.859 15.5508 5.45074 16.3011 4.77026 16.7786C 4.15788 17.1878 3.40938 17.256 2.72889 17.1196C 2.72889 16.4375 2.72889 15.7555 2.7969 15.0053C 2.86491 14.5961 3.34127 12.0725 5.859 9.34423C 5.859 9.34423 8.85298 8.79859 10.6902 11.5268C 11.5748 12.8909 11.6428 14.5961 10.8943 16.0283C 10.5541 16.7104 10.8263 17.5288 11.5067 17.8698C 11.7109 17.938 12.7996 18.2109 13.344 17.256C 13.6161 16.7786 13.7522 16.2329 13.8883 15.6874C 16.1338 16.6422 19.2639 15.6192 20.2166 14.4596C 20.6929 13.914 20.6248 13.0273 20.0804 12.5499C 19.5361 12.0725 18.6515 12.1407 18.1752 12.6864C 17.5628 13.3684 16.7462 13.7095 15.9297 13.5048C 13.2078 13.0273 13.344 10.572 13.0037 10.0263C 12.0511 8.45755 10.486 7.29809 8.78488 6.82071C 10.9624 5.32021 14.0244 4.02431 18.1072 3.27406L 18.1072 4.43352C 18.1072 7.70739 20.7609 10.2992 23.9591 10.2992C 24.7076 10.2992 25.32 9.68537 25.32 8.93512C 25.32 8.18487 24.7076 7.57106 23.9591 7.57106C 22.1899 7.57106 20.829 6.13872 20.829 4.43362L 20.829 2.86466C 21.9858 2.72822 23.1426 2.66006 24.4355 2.59189C 24.7076 2.59189 28.3141 2.66006 32.5329 4.5016C 32.5329 4.56976 33.8938 7.50259 32.1247 10.0262C 31.0359 11.595 29.2667 12.4816 27.3615 12.3452C 26.613 12.2771 25.9325 12.8909 25.9325 13.6411C 25.8645 14.3914 26.4769 15.0735 27.2254 15.0735C 27.4295 15.0735 31.172 15.0735 33.1453 13.0273C 33.1453 13.0273 34.5062 14.3914 33.9618 15.8237C 33.6216 16.7786 33.0092 17.5288 31.9885 17.8017C 31.24 18.0063 30.8317 18.7565 31.0358 19.5068C 31.172 20.1206 31.7843 20.5299 32.3287 20.5299C 32.4648 20.5299 35.7991 19.7797 36.5476 16.5741C 37.2961 13.0956 34.7783 10.913 34.7783 10.913C 35.5948 9.48067 35.8671 7.84373 35.731 6.2068C 39.4734 8.59398 43.352 12.4817 45.7336 19.0293C 46.5502 21.3482 46.4141 23.7354 45.4615 25.6452Z"/>
<path id="path25_fill" d="M 40.7378 27.9833L 40.7378 6.82597C 42.0541 6.3498 43 5.04754 43 3.51162C 43 1.57189 41.4946 0 39.6378 0C 38.2712 0 37.0975 0.852584 36.5715 2.07506L 14.9888 2.07506C 14.463 0.852584 13.2895 0 11.9229 0C 10.0659 0 8.56004 1.57189 8.56004 3.51162C 8.56004 4.53978 8.98495 5.4643 9.66096 6.10555L 4.45342 14.4005C 4.11058 14.2778 3.74589 14.2044 3.36304 14.2044C 1.50598 14.2044 0.000548553 15.7771 0.000548553 17.7162C 0.000548553 19.5197 1.30465 21.0047 2.98195 21.2031L 2.98195 42.003C 2.31521 42.0816 1.66349 42.366 1.12548 42.8679C -0.261385 44.1587 -0.383373 46.3777 0.853199 47.8264C 2.08879 49.2728 4.21559 49.3998 5.60099 48.1096C 6.01058 47.7283 6.30696 47.265 6.49355 46.7654L 27.9029 46.7654C 28.0442 47.1442 28.2483 47.5047 28.5222 47.8264C 29.7585 49.2728 31.8846 49.3998 33.2707 48.1096C 34.5275 46.94 34.741 45.0095 33.8512 43.5806L 39.372 34.7867C 40.2405 34.8458 41.1307 34.5575 41.8316 33.9039C 43.2177 32.6131 43.3394 30.3946 42.1037 28.9462C 41.7175 28.4967 41.2458 28.1749 40.7378 27.9833ZM 32.1772 42.1882L 32.1772 32.5603L 36.4622 32.5603C 36.6041 32.9391 36.8076 33.2997 37.0821 33.6214C 37.2407 33.8074 37.4142 33.97 37.5992 34.1127L 32.4522 42.312C 32.3612 42.268 32.2717 42.224 32.1772 42.1882ZM 11.5415 6.99859L 11.5415 16.2801L 6.42846 16.2801C 6.3055 15.9963 6.14525 15.7347 5.95934 15.4967L 11.3171 6.96201C 11.3911 6.97566 11.4647 6.98993 11.5415 6.99859ZM 4.8147 42.3219L 4.8147 20.88C 5.81169 20.3793 6.53444 19.3834 6.68981 18.1958L 11.5414 18.1958L 11.5414 27.7982C 10.8736 27.8771 10.2234 28.1616 9.68438 28.6633C 8.29849 29.9541 8.17631 32.1729 9.41298 33.6213C 9.58796 33.8268 9.78343 34.0028 9.99013 34.1549L 4.85042 42.3427C 4.83705 42.3355 4.82748 42.3287 4.8147 42.3219ZM 13.3759 28.1169L 13.3759 18.1958L 27.7491 18.1958C 27.9399 19.6534 28.9853 20.8257 30.3436 21.1416L 30.3436 30.6444L 15.2253 30.6444C 15.1176 30.0339 14.8569 29.4446 14.4327 28.9467C 14.1262 28.5886 13.7654 28.3121 13.3759 28.1169ZM 32.1772 21.0316C 33.4926 20.5548 34.4404 19.2532 34.4404 17.7168C 34.4404 16.8288 34.122 16.0209 33.602 15.4026L 38.9041 6.95681L 38.9041 27.8502C 38.3454 27.971 37.81 28.2393 37.3538 28.6634C 36.7739 29.2032 36.4193 29.9051 36.289 30.6444L 32.1771 30.6444L 32.1771 21.0316L 32.1772 21.0316ZM 15.25 3.99014L 36.3093 3.99014C 36.4129 4.78413 36.7761 5.48621 37.2994 6.01863L 32.0629 14.3596C 31.7517 14.259 31.42 14.2046 31.0772 14.2046C 29.7107 14.2046 28.537 15.0572 28.0115 16.2797L 13.3759 16.2797L 13.3759 6.67404C 14.3727 6.17331 15.0953 5.17776 15.25 3.99014ZM 28.7935 42.8685C 28.2138 43.409 27.8585 44.1103 27.7282 44.8501L 6.66541 44.8501C 6.59134 44.433 6.44056 44.0277 6.22069 43.6525L 11.7841 34.7902C 12.6263 34.8263 13.482 34.5376 14.1613 33.9048C 14.5714 33.5234 14.8671 33.0604 15.053 32.5609L 30.344 32.5609L 30.344 42.0561C 29.7841 42.1768 29.2491 42.4442 28.7935 42.8685Z"/>
</defs>
</svg>
