<svg width="404" height="437" viewBox="0 0 404 437" version="1.1" xmlns="https://www.w3.org/2000/svg" xmlns:xlink="https://www.w3.org/1999/xlink">
<title>Group 12</title>
<desc>Created using Figma</desc>
<g id="Canvas" transform="translate(-440 -2082)">
<g id="Group 12">
<g id="Vector 2.1">
<use xlink:href="#path0_stroke" transform="matrix(1 0 0 -1 642.181 2224.11)" fill="#000000" fill-opacity="0.26"/>
</g>
<g id="Group 9">
<g id="Subtract">
<use xlink:href="#path1_fill" transform="matrix(1 -1.10015e-16 -0.000578462 1 580.643 2252.54)" fill="#FFFFFF"/>
<use xlink:href="#path1_fill" transform="matrix(1 -1.10015e-16 -0.000578462 1 580.643 2252.54)" fill="url(#paint2_linear)"/>
<use xlink:href="#path1_fill" transform="matrix(1 -1.10015e-16 -0.000578462 1 580.643 2252.54)" fill="url(#paint3_linear)"/>
</g>
<g id="Vector">
<use xlink:href="#path2_fill" transform="matrix(1 6.63856e-09 -6.779e-09 1 623.605 2287.72)" fill="#FFFFFF"/>
<use xlink:href="#path3_fill" transform="matrix(1 6.63856e-09 -6.779e-09 1 623.605 2287.72)" fill="#FFFFFF"/>
<use xlink:href="#path4_fill" transform="matrix(1 6.63856e-09 -6.779e-09 1 623.605 2287.72)" fill="#FFFFFF"/>
<use xlink:href="#path5_fill" transform="matrix(1 6.63856e-09 -6.779e-09 1 623.605 2287.72)" fill="#FFFFFF"/>
<use xlink:href="#path6_fill" transform="matrix(1 6.63856e-09 -6.779e-09 1 623.605 2287.72)" fill="#FFFFFF"/>
</g>
</g>
<g id="Ellipse 7.2">
<mask id="mask0_outline_ins">
<use xlink:href="#path7_fill" fill="white" transform="translate(555.766 2224.11)"/>
</mask>
<g mask="url(#mask0_outline_ins)">
<use xlink:href="#path8_stroke_2x" transform="translate(555.766 2224.11)" fill="#000000" fill-opacity="0.26"/>
</g>
</g>
<g id="Ellipse 7.3">
<mask id="mask1_outline_ins">
<use xlink:href="#path9_fill" fill="white" transform="translate(440 2105.69)"/>
</mask>
<g mask="url(#mask1_outline_ins)">
<use xlink:href="#path10_stroke_2x" transform="translate(440 2105.69)" fill="#000000" fill-opacity="0.26"/>
</g>
</g>
<g id="Group 12">
<g id="Ellipse 8.4">
<use xlink:href="#path11_fill" transform="translate(618.556 2082)" fill="url(#paint11_linear)"/>
</g>
<g id="fountain-pen">
<g id="Group">
<g id="Group">
<g id="Vector">
<use xlink:href="#path12_fill" transform="translate(634 2096)" fill="#FFFFFF"/>
</g>
<g id="Vector">
<use xlink:href="#path13_fill" transform="translate(641.973 2096)" fill="#FFFFFF"/>
</g>
</g>
<g id="Vector">
<use xlink:href="#path14_fill" transform="translate(641.973 2105.45)" fill="#FFFFFF"/>
</g>
<g id="Vector">
<use xlink:href="#path15_fill" transform="translate(640.76 2102.99)" fill="#FFFFFF"/>
</g>
<g id="Vector">
<use xlink:href="#path16_fill" transform="translate(634.77 2096)" fill="#FFFFFF"/>
</g>
</g>
</g>
</g>
<g id="Vector 2">
<use xlink:href="#path17_stroke" transform="translate(465.988 2356)" fill="#000000" fill-opacity="0.26"/>
</g>
<g id="Group 10">
<g id="Ellipse 8.3">
<use xlink:href="#path11_fill" transform="translate(442.363 2385)" fill="url(#paint18_linear)"/>
</g>
<g id="$">
<use xlink:href="#path18_fill" transform="translate(459 2397.82)" fill="#FFFFFF"/>
</g>
</g>
<g id="Vector 2">
<use xlink:href="#path17_stroke" transform="matrix(-1 0 0 1 817.421 2356)" fill="#000000" fill-opacity="0.26"/>
</g>
<g id="Group 11">
<g id="Ellipse 8.6">
<use xlink:href="#path11_fill" transform="matrix(-1 0 0 1 840.047 2385)" fill="url(#paint21_linear)"/>
</g>
<g id="speech-bubble">
<g id="Group">
<g id="Vector">
<use xlink:href="#path19_fill" transform="translate(804 2397.23)" fill="#FFFFFF"/>
</g>
<g id="Vector">
<use xlink:href="#path20_fill" transform="translate(821.988 2407.02)" fill="#FFFFFF"/>
</g>
<g id="Vector">
<use xlink:href="#path21_fill" transform="translate(816.167 2407.02)" fill="#FFFFFF"/>
</g>
<g id="Vector">
<use xlink:href="#path22_fill" transform="translate(810.346 2407.02)" fill="#FFFFFF"/>
</g>
</g>
</g>
</g>
</g>
</g>
<defs>
<linearGradient id="paint2_linear" x1="0" y1="0" x2="1" y2="0" gradientUnits="userSpaceOnUse" gradientTransform="matrix(-3.37515e-15 40.449 -40.7156 -3.35278e-15 61.6326 56.0065)">
<stop offset="0" stop-color="#331D50"/>
<stop offset="1" stop-color="#247FAD"/>
</linearGradient>
<linearGradient id="paint3_linear" x1="0" y1="0" x2="1" y2="0" gradientUnits="userSpaceOnUse" gradientTransform="matrix(30.8201 29.096 -29.2659 30.6171 60.2051 22.279)">
<stop offset="0" stop-color="#E87B88"/>
<stop offset="1" stop-color="#E71D36"/>
</linearGradient>
<linearGradient id="paint11_linear" x1="0" y1="0" x2="1" y2="0" gradientUnits="userSpaceOnUse" gradientTransform="matrix(0 46.4646 -46.3471 0 23.6257 24.542)">
<stop offset="0" stop-color="#331D50"/>
<stop offset="1" stop-color="#247FAD"/>
</linearGradient>
<linearGradient id="paint18_linear" x1="0" y1="0" x2="1" y2="0" gradientUnits="userSpaceOnUse" gradientTransform="matrix(0 46.4646 -46.3471 0 23.6257 24.542)">
<stop offset="0" stop-color="#331D50"/>
<stop offset="1" stop-color="#247FAD"/>
</linearGradient>
<linearGradient id="paint21_linear" x1="0" y1="0" x2="1" y2="0" gradientUnits="userSpaceOnUse" gradientTransform="matrix(0 46.4646 -46.3471 0 23.6257 24.542)">
<stop offset="0" stop-color="#331D50"/>
<stop offset="1" stop-color="#247FAD"/>
</linearGradient>
<path id="path0_stroke" d="M 0.499975 118.433L 0.531617 115.261L -0.468334 115.251L -0.499975 118.423L 0.499975 118.433ZM 0.637089 104.687L 0.700372 98.3427L -0.299578 98.3328L -0.362862 104.677L 0.637089 104.687ZM 0.805844 87.7688L 0.869127 81.4244L -0.130823 81.4144L -0.194106 87.7588L 0.805844 87.7688ZM 0.974599 70.8505L 1.03788 64.5061L 0.0379321 64.4961L -0.0253511 70.8405L 0.974599 70.8505ZM 1.14335 53.9321L 1.20664 47.5878L 0.206687 47.5778L 0.143404 53.9222L 1.14335 53.9321ZM 1.31211 37.0138L 1.37539 30.6694L 0.375443 30.6595L 0.312159 37.0038L 1.31211 37.0138ZM 1.48086 20.0955L 1.54415 13.7511L 0.544198 13.7411L 0.480915 20.0855L 1.48086 20.0955ZM 1.64962 3.17717L 1.68126 0.0049871L 0.681311 -0.0049871L 0.64967 3.1672L 1.64962 3.17717Z"/>
<path id="path1_fill" d="M 113.738 30.7364C 130.244 59.787 119.925 96.6173 90.6886 112.999C 61.4527 129.381 24.3713 119.111 7.865 90.0604C -8.64127 61.0098 1.67818 24.1795 30.9141 7.7976C 60.1501 -8.58429 97.2315 1.68575 113.738 30.7364Z"/>
<path id="path2_fill" d="M 9.809 38.0339L 9.809 14.8258L 16.8065 14.8258C 19.2223 14.8258 21.2424 15.118 22.8668 15.7025C 24.5329 16.2526 25.8658 17.0606 26.8654 18.1265C 27.865 19.1923 28.5731 20.4817 28.9896 21.9945C 29.4478 23.473 29.6769 25.1405 29.6769 26.9972C 29.6769 29.0257 29.3645 30.7448 28.7397 32.1545C 28.115 33.5642 27.2819 34.716 26.2406 35.61C 25.1993 36.4695 24.0123 37.0884 22.6794 37.4666C 21.3465 37.8448 19.972 38.0339 18.5559 38.0339L 9.809 38.0339ZM 0 8.01804L 0 44.8416L 19.2431 44.8416C 22.6586 44.8416 25.6159 44.3775 28.115 43.4492C 30.6557 42.4865 32.7591 41.1799 34.4252 39.5296C 36.1329 37.8792 37.4033 35.9194 38.2363 33.6502C 39.0694 31.3809 39.4859 28.9054 39.4859 26.2235C 39.4859 23.1635 38.9653 20.4989 37.924 18.2296C 36.9243 15.9604 35.5082 14.0694 33.6755 12.5565C 31.8844 11.0437 29.7394 9.90908 27.2403 9.15266C 24.7828 8.39625 22.1171 8.01804 19.2431 8.01804L 0 8.01804Z"/>
<path id="path3_fill" d="M 10.1706 0L 10.1706 8.01804L 14.9568 8.01804L 14.9568 0L 10.1706 0Z"/>
<path id="path4_fill" d="M 19.1447 0L 19.1447 8.01804L 23.9308 8.3828L 23.9308 0L 19.1447 0Z"/>
<path id="path5_fill" d="M 10.1706 44.8416L 10.1706 52.5627L 14.9568 52.5627L 14.9568 44.8416L 10.1706 44.8416Z"/>
<path id="path6_fill" d="M 19.1447 44.8416L 19.1447 52.5627L 23.9308 52.5627L 23.9308 44.5078L 19.1447 44.8416Z"/>
<path id="path7_fill" d="M 172.468 88.229C 172.468 136.957 133.86 176.458 86.2339 176.458C 38.6082 176.458 0 136.957 0 88.229C 0 39.5015 38.6082 0 86.2339 0C 133.86 0 172.468 39.5015 172.468 88.229Z"/>
<path id="path8_stroke_2x" d="M 172.968 88.229C 172.968 87.268 172.953 86.3066 172.923 85.3528L 171.924 85.384C 171.953 86.3299 171.968 87.2758 171.968 88.229L 172.968 88.229ZM 172.127 75.823C 171.866 73.9198 171.546 72.0281 171.169 70.1656L 170.189 70.3637C 170.562 72.2107 170.878 74.0711 171.136 75.9585L 172.127 75.823ZM 168.776 60.9021C 168.198 59.0724 167.56 57.2611 166.871 55.4856L 165.939 55.8476C 166.622 57.6082 167.249 59.3891 167.823 61.2035L 168.776 60.9021ZM 162.936 46.7678C 162.055 45.0663 161.118 43.3906 160.134 41.757L 159.278 42.2729C 160.253 43.8926 161.174 45.5402 162.048 47.2274L 162.936 46.7678ZM 154.766 33.8385C 153.609 32.3143 152.398 30.8235 151.148 29.381L 150.392 30.036C 151.632 31.4662 152.822 32.9319 153.97 34.4433L 154.766 33.8385ZM 144.5 22.5023C 143.099 21.2014 141.649 19.9415 140.167 18.7355L 139.536 19.5113C 141.006 20.7068 142.431 21.9453 143.82 23.2352L 144.5 22.5023ZM 132.425 13.1156C 130.819 12.0805 129.171 11.0934 127.497 10.1653L 127.013 11.0399C 128.672 11.9598 130.291 12.9297 131.883 13.956L 132.425 13.1156ZM 118.884 6.00177C 117.124 5.26958 115.327 4.59185 113.511 3.97684L 113.19 4.924C 114.99 5.53341 116.755 6.1992 118.5 6.92508L 118.884 6.00177ZM 104.288 1.42506C 102.429 1.02243 100.539 0.679232 98.6382 0.400634L 98.4933 1.39007C 100.378 1.66605 102.234 2.00319 104.076 2.40239L 104.288 1.42506ZM 89.1109 -0.452103C 88.1571 -0.483888 87.1953 -0.499983 86.2339 -0.5L 86.2339 0.5C 87.1869 0.499983 88.1321 0.515798 89.0775 0.547341L 89.1109 -0.452103ZM 86.2339 -0.5C 85.2726 -0.499983 84.3107 -0.483888 83.357 -0.452103L 83.3903 0.547341C 84.3358 0.515798 85.2809 0.499983 86.2339 0.5L 86.2339 -0.5ZM 73.8296 0.400636C 71.9285 0.679234 70.0389 1.02243 68.1797 1.42506L 68.3914 2.40239C 70.2341 2.00319 72.0903 1.66605 73.9746 1.39007L 73.8296 0.400636ZM 58.957 3.97684C 57.1411 4.59186 55.3439 5.26958 53.5835 6.00177L 53.9675 6.92508C 55.7124 6.19921 57.4779 5.53342 59.2777 4.92401L 58.957 3.97684ZM 44.9704 10.1653C 43.2964 11.0934 41.6484 12.0805 40.0432 13.1156L 40.5852 13.956C 42.1764 12.9297 43.7958 11.9598 45.4552 11.04L 44.9704 10.1653ZM 32.3011 18.7355C 30.8183 19.9415 29.3689 21.2015 27.9675 22.5023L 28.6478 23.2352C 30.0372 21.9454 31.4619 20.7068 32.9321 19.5113L 32.3011 18.7355ZM 21.3198 29.381C 20.0694 30.8235 18.8592 32.3143 17.7016 33.8385L 18.4979 34.4433C 19.6457 32.9319 20.8355 31.4662 22.0754 30.036L 21.3198 29.381ZM 12.3336 41.7571C 11.35 43.3906 10.4128 45.0663 9.53206 46.7678L 10.4202 47.2274C 11.2934 45.5402 12.2148 43.8927 13.1902 42.2729L 12.3336 41.7571ZM 5.59703 55.4856C 4.90762 57.2611 4.26996 59.0724 3.69148 60.9021L 4.64498 61.2035C 5.21845 59.3892 5.84545 57.6082 6.52921 55.8476L 5.59703 55.4856ZM 1.29871 70.1656C 0.92223 72.0281 0.601499 73.9198 0.34113 75.823L 1.33191 75.9586C 1.58998 74.0711 1.9054 72.2108 2.27888 70.3637L 1.29871 70.1656ZM -0.455289 85.3528C -0.484966 86.3066 -0.499985 87.268 -0.5 88.229L 0.5 88.229C 0.499985 87.2758 0.514761 86.3299 0.544227 85.384L -0.455289 85.3528ZM -0.5 88.229C -0.499985 89.1901 -0.484966 90.1515 -0.455289 91.1052L 0.544227 91.0741C 0.514761 90.1282 0.499985 89.1823 0.5 88.229L -0.5 88.229ZM 0.341131 100.635C 0.601501 102.538 0.922232 104.43 1.29871 106.293L 2.27888 106.094C 1.9054 104.247 1.58998 102.387 1.33191 100.5L 0.341131 100.635ZM 3.69149 115.556C 4.26996 117.386 4.90762 119.197 5.59704 120.972L 6.52921 120.61C 5.84546 118.85 5.21846 117.069 4.64498 115.255L 3.69149 115.556ZM 9.53206 129.69C 10.4128 131.392 11.35 133.067 12.3336 134.701L 13.1902 134.185C 12.2148 132.565 11.2934 130.918 10.4202 129.231L 9.53206 129.69ZM 17.7016 142.62C 18.8592 144.144 20.0694 145.635 21.3198 147.077L 22.0754 146.422C 20.8355 144.992 19.6457 143.526 18.4979 142.015L 17.7016 142.62ZM 27.9675 153.956C 29.3689 155.257 30.8184 156.517 32.3011 157.723L 32.9321 156.947C 31.4619 155.751 30.0372 154.513 28.6478 153.223L 27.9675 153.956ZM 40.0432 163.342C 41.6485 164.378 43.2964 165.365 44.9704 166.293L 45.4552 165.418C 43.7958 164.498 42.1764 163.528 40.5852 162.502L 40.0432 163.342ZM 53.5835 170.456C 55.3439 171.189 57.1411 171.866 58.957 172.481L 59.2777 171.534C 57.4779 170.925 55.7124 170.259 53.9676 169.533L 53.5835 170.456ZM 68.1798 175.033C 70.0389 175.436 71.9285 175.779 73.8296 176.057L 73.9746 175.068C 72.0903 174.792 70.2342 174.455 68.3914 174.056L 68.1798 175.033ZM 83.357 176.91C 84.3107 176.942 85.2726 176.958 86.2339 176.958L 86.2339 175.958C 85.2809 175.958 84.3358 175.942 83.3903 175.911L 83.357 176.91ZM 86.2339 176.958C 87.1953 176.958 88.1571 176.942 89.1109 176.91L 89.0776 175.911C 88.1321 175.942 87.1869 175.958 86.2339 175.958L 86.2339 176.958ZM 98.6382 176.057C 100.539 175.779 102.429 175.436 104.288 175.033L 104.076 174.056C 102.234 174.455 100.378 174.792 98.4933 175.068L 98.6382 176.057ZM 113.511 172.481C 115.327 171.866 117.124 171.189 118.884 170.456L 118.5 169.533C 116.755 170.259 114.99 170.925 113.19 171.534L 113.511 172.481ZM 127.497 166.293C 129.171 165.365 130.819 164.378 132.425 163.342L 131.883 162.502C 130.291 163.528 128.672 164.498 127.013 165.418L 127.497 166.293ZM 140.167 157.723C 141.649 156.517 143.099 155.257 144.5 153.956L 143.82 153.223C 142.431 154.513 141.006 155.751 139.536 156.947L 140.167 157.723ZM 151.148 147.077C 152.398 145.635 153.609 144.144 154.766 142.62L 153.97 142.015C 152.822 143.526 151.632 144.992 150.392 146.422L 151.148 147.077ZM 160.134 134.701C 161.118 133.067 162.055 131.392 162.936 129.69L 162.048 129.231C 161.174 130.918 160.253 132.565 159.278 134.185L 160.134 134.701ZM 166.871 120.972C 167.56 119.197 168.198 117.386 168.776 115.556L 167.823 115.255C 167.249 117.069 166.622 118.85 165.939 120.61L 166.871 120.972ZM 171.169 106.293C 171.546 104.43 171.866 102.538 172.127 100.635L 171.136 100.5C 170.878 102.387 170.562 104.247 170.189 106.094L 171.169 106.293ZM 172.923 91.1052C 172.953 90.1515 172.968 89.1901 172.968 88.229L 171.968 88.229C 171.968 89.1823 171.953 90.1282 171.924 91.0741L 172.923 91.1052ZM 173.468 88.229C 173.468 87.264 173.453 86.2949 173.423 85.3373L 171.424 85.3995C 171.453 86.3416 171.468 87.2797 171.468 88.229L 173.468 88.229ZM 172.622 75.7553C 172.361 73.8441 172.037 71.9367 171.659 70.0665L 169.699 70.4628C 170.071 72.3021 170.384 74.1468 170.641 76.0263L 172.622 75.7553ZM 169.253 60.7514C 168.672 58.914 168.029 57.0876 167.337 55.3046L 165.473 56.0286C 166.153 57.7817 166.775 59.5475 167.346 61.3542L 169.253 60.7514ZM 163.38 46.5379C 162.495 44.8293 161.55 43.1396 160.563 41.4991L 158.849 42.5308C 159.821 44.1437 160.734 45.7772 161.604 47.4573L 163.38 46.5379ZM 155.164 33.5361C 154.002 32.0055 152.781 30.5021 151.526 29.0535L 150.015 30.3635C 151.249 31.7876 152.429 33.2407 153.572 34.7457L 155.164 33.5361ZM 144.841 22.1359C 143.433 20.8295 141.971 19.5588 140.482 18.3476L 139.22 19.8992C 140.684 21.0895 142.096 22.3173 143.48 23.6017L 144.841 22.1359ZM 132.696 12.6954C 131.083 11.6558 129.421 10.6602 127.74 9.72804L 126.77 11.4773C 128.422 12.393 130.027 13.3543 131.612 14.3762L 132.696 12.6954ZM 119.076 5.54012C 117.308 4.80477 115.495 4.12107 113.671 3.50326L 113.03 5.39759C 114.821 6.00419 116.571 6.66402 118.308 7.38673L 119.076 5.54012ZM 104.394 0.936387C 102.527 0.53205 100.62 0.185825 98.7107 -0.094085L 98.4208 1.88479C 100.297 2.15945 102.136 2.49357 103.971 2.89106L 104.394 0.936387ZM 89.1275 -0.951826C 88.1696 -0.983732 87.1994 -0.999965 86.2339 -1L 86.2339 1C 87.1827 0.999965 88.1196 1.01564 89.0609 1.04706L 89.1275 -0.951826ZM 86.2339 -1C 85.2684 -0.999965 84.2982 -0.983732 83.3403 -0.951825L 83.4069 1.04706C 84.3483 1.01564 85.2851 0.999965 86.2339 1L 86.2339 -1ZM 73.7571 -0.0940826C 71.8475 0.185827 69.9413 0.532052 68.0739 0.93639L 68.4973 2.89106C 70.3318 2.49357 72.1712 2.15946 74.047 1.88479L 73.7571 -0.0940826ZM 58.7966 3.50326C 56.9726 4.12108 55.1596 4.80477 53.3915 5.54012L 54.1596 7.38673C 55.8966 6.66402 57.6463 6.0042 59.4381 5.39759L 58.7966 3.50326ZM 44.728 9.72805C 43.0466 10.6602 41.3844 11.6558 39.7722 12.6954L 40.8562 14.3762C 42.4404 13.3544 44.0455 12.393 45.6976 11.4773L 44.728 9.72805ZM 31.9856 18.3476C 30.4965 19.5588 29.0348 20.8295 27.6273 22.1359L 28.988 23.6017C 30.3713 22.3173 31.7837 21.0895 33.2475 19.8992L 31.9856 18.3476ZM 20.942 29.0535C 19.6864 30.5021 18.4659 32.0055 17.3034 33.5361L 18.8961 34.7457C 20.0389 33.2407 21.2186 31.7876 22.4532 30.3635L 20.942 29.0535ZM 11.9052 41.4991C 10.9176 43.1396 9.97253 44.8293 9.08801 46.538L 10.8642 47.4573C 11.7336 45.7772 12.6472 44.1437 13.6186 42.5308L 11.9052 41.4991ZM 5.13094 55.3046C 4.4387 57.0876 3.79571 58.914 3.21473 60.7514L 5.12172 61.3542C 5.6927 59.5476 6.31437 57.7817 6.9953 56.0286L 5.13094 55.3046ZM 0.808627 70.0665C 0.430644 71.9367 0.107259 73.8441 -0.154259 75.7553L 1.82729 76.0263C 2.08422 74.1468 2.39699 72.3021 2.76897 70.4628L 0.808627 70.0665ZM -0.955047 85.3373C -0.984829 86.2949 -0.999969 87.264 -1 88.229L 1 88.229C 0.999969 87.2797 1.01462 86.3416 1.04398 85.3995L -0.955047 85.3373ZM -1 88.229C -0.999969 89.194 -0.984829 90.1632 -0.955047 91.1208L 1.04398 91.0586C 1.01462 90.1165 0.999969 89.1784 1 88.229L -1 88.229ZM -0.154257 100.703C 0.107261 102.614 0.430646 104.521 0.80863 106.392L 2.76897 105.995C 2.39699 104.156 2.08422 102.311 1.8273 100.432L -0.154257 100.703ZM 3.21474 115.707C 3.79571 117.544 4.43871 119.371 5.13095 121.153L 6.9953 120.429C 6.31438 118.676 5.69271 116.911 5.12173 115.104L 3.21474 115.707ZM 9.08802 129.92C 9.97253 131.629 10.9176 133.319 11.9052 134.959L 13.6186 133.927C 12.6473 132.314 11.7336 130.681 10.8642 129.001L 9.08802 129.92ZM 17.3034 142.922C 18.4659 144.453 19.6864 145.956 20.942 147.405L 22.4532 146.095C 21.2186 144.67 20.0389 143.217 18.8961 141.712L 17.3034 142.922ZM 27.6273 154.322C 29.0348 155.629 30.4966 156.899 31.9856 158.111L 33.2476 156.559C 31.7837 155.369 30.3714 154.141 28.988 152.856L 27.6273 154.322ZM 39.7722 163.763C 41.3845 164.802 43.0467 165.798 44.728 166.73L 45.6976 164.981C 44.0455 164.065 42.4404 163.104 40.8562 162.082L 39.7722 163.763ZM 53.3915 170.918C 55.1596 171.653 56.9726 172.337 58.7966 172.955L 59.4381 171.06C 57.6463 170.454 55.8967 169.794 54.1596 169.071L 53.3915 170.918ZM 68.0739 175.522C 69.9413 175.926 71.8475 176.272 73.7571 176.552L 74.047 174.573C 72.1713 174.299 70.3318 173.965 68.4973 173.567L 68.0739 175.522ZM 83.3403 177.41C 84.2982 177.442 85.2684 177.458 86.2339 177.458L 86.2339 175.458C 85.2851 175.458 84.3483 175.442 83.4069 175.411L 83.3403 177.41ZM 86.2339 177.458C 87.1994 177.458 88.1696 177.442 89.1275 177.41L 89.0609 175.411C 88.1196 175.442 87.1827 175.458 86.2339 175.458L 86.2339 177.458ZM 98.7107 176.552C 100.62 176.272 102.527 175.926 104.394 175.522L 103.971 173.567C 102.136 173.965 100.297 174.299 98.4208 174.573L 98.7107 176.552ZM 113.671 172.955C 115.495 172.337 117.308 171.653 119.076 170.918L 118.308 169.071C 116.571 169.794 114.822 170.454 113.03 171.06L 113.671 172.955ZM 127.74 166.73C 129.421 165.798 131.083 164.802 132.696 163.763L 131.612 162.082C 130.027 163.104 128.422 164.065 126.77 164.981L 127.74 166.73ZM 140.482 158.111C 141.971 156.899 143.433 155.629 144.841 154.322L 143.48 152.856C 142.096 154.141 140.684 155.369 139.22 156.559L 140.482 158.111ZM 151.526 147.405C 152.781 145.956 154.002 144.453 155.164 142.922L 153.572 141.712C 152.429 143.217 151.249 144.67 150.015 146.095L 151.526 147.405ZM 160.563 134.959C 161.55 133.319 162.495 131.629 163.38 129.92L 161.604 129.001C 160.734 130.681 159.821 132.314 158.849 133.927L 160.563 134.959ZM 167.337 121.153C 168.029 119.371 168.672 117.544 169.253 115.707L 167.346 115.104C 166.775 116.911 166.153 118.676 165.473 120.429L 167.337 121.153ZM 171.659 106.392C 172.037 104.521 172.361 102.614 172.622 100.703L 170.641 100.432C 170.384 102.311 170.071 104.156 169.699 105.995L 171.659 106.392ZM 173.423 91.1208C 173.453 90.1632 173.468 89.194 173.468 88.229L 171.468 88.229C 171.468 89.1784 171.453 90.1165 171.424 91.0586L 173.423 91.1208Z"/>
<path id="path9_fill" d="M 404 206.657C 404 320.791 313.562 413.315 202 413.315C 90.4385 413.315 0 320.791 0 206.657C 0 92.5236 90.4385 0 202 0C 313.562 0 404 92.5236 404 206.657Z"/>
<path id="path10_stroke_2x" d="M 404.5 206.657C 404.5 205.647 404.493 204.636 404.479 203.629L 403.479 203.643C 403.493 204.646 403.5 205.65 403.5 206.657L 404.5 206.657ZM 404.103 193.584C 403.981 191.572 403.83 189.565 403.652 187.569L 402.656 187.658C 402.833 189.647 402.983 191.64 403.105 193.645L 404.103 193.584ZM 402.521 177.578C 402.246 175.582 401.944 173.591 401.614 171.613L 400.628 171.777C 400.956 173.748 401.257 175.725 401.53 177.714L 402.521 177.578ZM 399.726 161.738C 399.301 159.771 398.848 157.811 398.368 155.865L 397.398 156.104C 397.875 158.043 398.325 159.989 398.749 161.95L 399.726 161.738ZM 395.729 146.163C 395.154 144.232 394.55 142.309 393.922 140.402L 392.972 140.716C 393.599 142.615 394.198 144.524 394.771 146.448L 395.729 146.163ZM 390.544 130.933C 389.823 129.055 389.074 127.188 388.302 125.337L 387.379 125.723C 388.149 127.566 388.892 129.421 389.611 131.291L 390.544 130.933ZM 384.204 116.155C 383.34 114.337 382.448 112.53 381.534 110.742L 380.643 111.198C 381.555 112.979 382.44 114.773 383.301 116.585L 384.204 116.155ZM 376.74 101.904C 375.738 100.16 374.711 98.428 373.661 96.7164L 372.809 97.2392C 373.854 98.9446 374.875 100.664 375.873 102.402L 376.74 101.904ZM 368.199 88.275C 367.066 86.6136 365.908 84.967 364.729 83.3417L 363.92 83.9288C 365.094 85.5482 366.244 87.1829 367.373 88.8384L 368.199 88.275ZM 358.63 75.3479C 357.372 73.7787 356.089 72.2258 354.787 70.6956L 354.025 71.3437C 355.323 72.8684 356.596 74.41 357.85 75.9736L 358.63 75.3479ZM 348.086 63.1993C 346.71 61.7334 345.311 60.2856 343.894 58.8615L 343.185 59.5669C 344.597 60.9858 345.986 62.4231 347.357 63.8836L 348.086 63.1993ZM 336.629 51.9099C 335.143 50.5561 333.635 49.2218 332.11 47.9125L 331.459 48.6712C 332.978 49.9757 334.475 51.3002 335.956 52.6491L 336.629 51.9099ZM 324.323 41.5518C 322.735 40.3192 321.127 39.1078 319.503 37.9225L 318.914 38.7302C 320.531 39.9111 322.128 41.1136 323.709 42.3416L 324.323 41.5518ZM 311.238 32.1967C 309.558 31.0937 307.858 30.0134 306.145 28.9603L 305.622 29.8122C 307.328 30.8614 309.016 31.9337 310.689 33.0326L 311.238 32.1967ZM 297.45 23.9106C 295.689 22.9457 293.908 22.005 292.116 21.0924L 291.662 21.9835C 293.448 22.8926 295.215 23.8263 296.97 24.7876L 297.45 23.9106ZM 283.043 16.7568C 281.211 15.9371 279.36 15.1429 277.5 14.3777L 277.119 15.3025C 278.973 16.0648 280.809 16.853 282.635 17.6696L 283.043 16.7568ZM 268.107 10.7899C 266.212 10.1209 264.302 9.47867 262.382 8.8661L 262.078 9.81876C 263.99 10.429 265.887 11.0663 267.774 11.7328L 268.107 10.7899ZM 252.727 6.05349C 250.79 5.54221 248.837 5.05862 246.878 4.60501L 246.652 5.57926C 248.604 6.0311 250.542 6.51102 252.472 7.02039L 252.727 6.05349ZM 237.027 2.58785C 235.052 2.23549 233.063 1.91181 231.069 1.61847L 230.923 2.60783C 232.91 2.90002 234.884 3.22126 236.852 3.57231L 237.027 2.58785ZM 221.086 0.408102C 219.092 0.217391 217.085 0.0559669 215.074 -0.07513L 215.009 0.922752C 217.013 1.05333 219.004 1.21354 220.991 1.40356L 221.086 0.408102ZM 205.029 -0.477295C 204.022 -0.492401 203.011 -0.499996 202 -0.5L 202 0.5C 203.007 0.499996 204.01 0.507535 205.014 0.522592L 205.029 -0.477295ZM 202 -0.5C 200.989 -0.499996 199.978 -0.492401 198.971 -0.477295L 198.986 0.522592C 199.99 0.507535 200.993 0.499996 202 0.5L 202 -0.5ZM 188.925 -0.0751295C 186.915 0.0559675 184.908 0.217391 182.914 0.408103L 183.009 1.40356C 184.996 1.21354 186.987 1.05333 188.991 0.922752L 188.925 -0.0751295ZM 172.931 1.61847C 170.937 1.91181 168.948 2.23549 166.973 2.58785L 167.148 3.57231C 169.116 3.22126 171.09 2.90002 173.077 2.60783L 172.931 1.61847ZM 157.122 4.60501C 155.163 5.05862 153.21 5.54221 151.273 6.05349L 151.528 7.0204C 153.458 6.51103 155.396 6.0311 157.348 5.57926L 157.122 4.60501ZM 141.618 8.8661C 139.698 9.47868 137.788 10.1209 135.893 10.7899L 136.226 11.7328C 138.113 11.0663 140.01 10.429 141.922 9.81876L 141.618 8.8661ZM 126.5 14.3777C 124.64 15.1429 122.789 15.9371 120.957 16.7568L 121.365 17.6696C 123.191 16.853 125.027 16.0648 126.881 15.3025L 126.5 14.3777ZM 111.884 21.0924C 110.092 22.005 108.311 22.9457 106.55 23.9106L 107.03 24.7876C 108.785 23.8263 110.552 22.8926 112.338 21.9835L 111.884 21.0924ZM 97.8548 28.9603C 96.1415 30.0134 94.4416 31.0937 92.7618 32.1967L 93.3107 33.0326C 94.9842 31.9337 96.6715 30.8614 98.3784 29.8122L 97.8548 28.9603ZM 84.4966 37.9225C 82.8731 39.1078 81.2646 40.3192 79.6773 41.5518L 80.2906 42.3416C 81.872 41.1136 83.4688 39.9111 85.0862 38.7302L 84.4966 37.9225ZM 71.8899 47.9125C 70.3652 49.2218 68.8568 50.5561 67.3708 51.91L 68.0443 52.6491C 69.5249 51.3002 71.0222 49.9757 72.5414 48.6712L 71.8899 47.9125ZM 60.1063 58.8615C 58.6891 60.2856 57.2898 61.7334 55.914 63.1993L 56.6431 63.8837C 58.0139 62.4231 59.4031 60.9858 60.8151 59.5669L 60.1063 58.8615ZM 49.2134 70.6956C 47.9112 72.2258 46.6282 73.7787 45.3696 75.3479L 46.1497 75.9736C 47.4037 74.41 48.6774 72.8684 49.975 71.3437L 49.2134 70.6956ZM 39.2709 83.3417C 38.0921 84.967 36.9339 86.6136 35.801 88.275L 36.6272 88.8384C 37.756 87.183 38.9058 85.5482 40.0804 83.9288L 39.2709 83.3417ZM 30.339 96.7165C 29.2894 98.428 28.2617 100.16 27.26 101.904L 28.1273 102.402C 29.1253 100.664 30.1456 98.9446 31.1915 97.2392L 30.339 96.7165ZM 22.4665 110.742C 21.5518 112.53 20.6603 114.337 19.7957 116.155L 20.6988 116.585C 21.5603 114.773 22.4454 112.979 23.3568 111.198L 22.4665 110.742ZM 15.6983 125.337C 14.9255 127.188 14.177 129.055 13.4558 130.933L 14.3893 131.291C 15.1079 129.421 15.851 127.566 16.621 125.723L 15.6983 125.337ZM 10.0783 140.402C 9.44956 142.309 8.84615 144.232 8.27066 146.163L 9.22901 146.448C 9.80241 144.524 10.4015 142.615 11.028 140.716L 10.0783 140.402ZM 5.63149 155.865C 5.15208 157.811 4.69877 159.771 4.27362 161.738L 5.25105 161.95C 5.67466 159.989 6.12473 158.043 6.60245 156.104L 5.63149 155.865ZM 2.3856 171.613C 2.05617 173.591 1.75361 175.582 1.47941 177.578L 2.47011 177.714C 2.74331 175.725 3.04372 173.748 3.37201 171.777L 2.3856 171.613ZM 0.348225 187.569C 0.170003 189.565 0.0191919 191.572 -0.103283 193.584L 0.894869 193.645C 1.01689 191.64 1.16664 189.647 1.34426 187.658L 0.348225 187.569ZM -0.478797 203.629C -0.492905 204.636 -0.499997 205.647 -0.5 206.657L 0.5 206.657C 0.499997 205.65 0.50704 204.646 0.521105 203.643L -0.478797 203.629ZM -0.5 206.657C -0.499997 207.668 -0.492905 208.679 -0.478797 209.686L 0.521105 209.672C 0.50704 208.668 0.499997 207.664 0.5 206.657L -0.5 206.657ZM -0.103283 219.73C 0.0191928 221.742 0.170004 223.75 0.348226 225.745L 1.34426 225.656C 1.16664 223.668 1.01689 221.674 0.89487 219.67L -0.103283 219.73ZM 1.47941 235.736C 1.75361 237.733 2.05617 239.724 2.38561 241.702L 3.37202 241.538C 3.04373 239.567 2.74331 237.59 2.47012 235.6L 1.47941 235.736ZM 4.27362 251.576C 4.69877 253.544 5.15208 255.504 5.63149 257.45L 6.60245 257.21C 6.12473 255.271 5.67466 253.325 5.25105 251.365L 4.27362 251.576ZM 8.27066 267.152C 8.84616 269.083 9.44957 271.005 10.0783 272.912L 11.028 272.599C 10.4015 270.699 9.80241 268.79 9.22901 266.866L 8.27066 267.152ZM 13.4558 282.382C 14.177 284.259 14.9255 286.127 15.6983 287.977L 16.621 287.592C 15.851 285.748 15.1079 283.894 14.3893 282.023L 13.4558 282.382ZM 19.7957 297.159C 20.6603 298.978 21.5518 300.784 22.4665 302.572L 23.3568 302.117C 22.4454 300.335 21.5603 298.542 20.6988 296.73L 19.7957 297.159ZM 27.2601 311.41C 28.2617 313.155 29.2894 314.887 30.339 316.598L 31.1915 316.075C 30.1456 314.37 29.1253 312.651 28.1273 310.912L 27.2601 311.41ZM 35.801 325.04C 36.9339 326.701 38.0921 328.348 39.2709 329.973L 40.0804 329.386C 38.9058 327.766 37.756 326.132 36.6272 324.476L 35.801 325.04ZM 45.3696 337.967C 46.6282 339.536 47.9112 341.089 49.2134 342.619L 49.975 341.971C 48.6774 340.446 47.4037 338.905 46.1497 337.341L 45.3696 337.967ZM 55.914 350.115C 57.2898 351.581 58.6891 353.029 60.1063 354.453L 60.8151 353.748C 59.4031 352.329 58.014 350.891 56.6431 349.431L 55.914 350.115ZM 67.3708 361.405C 68.8568 362.759 70.3652 364.093 71.8899 365.402L 72.5414 364.643C 71.0222 363.339 69.5249 362.014 68.0443 360.665L 67.3708 361.405ZM 79.6773 371.763C 81.2646 372.995 82.8731 374.207 84.4966 375.392L 85.0863 374.584C 83.4688 373.404 81.872 372.201 80.2906 370.973L 79.6773 371.763ZM 92.7618 381.118C 94.4416 382.221 96.1415 383.301 97.8548 384.354L 98.3784 383.502C 96.6715 382.453 94.9842 381.381 93.3107 380.282L 92.7618 381.118ZM 106.55 389.404C 108.311 390.369 110.092 391.31 111.884 392.222L 112.338 391.331C 110.552 390.422 108.785 389.488 107.03 388.527L 106.55 389.404ZM 120.957 396.558C 122.789 397.377 124.64 398.172 126.5 398.937L 126.881 398.012C 125.027 397.25 123.191 396.462 121.365 395.645L 120.957 396.558ZM 135.893 402.525C 137.788 403.194 139.698 403.836 141.618 404.448L 141.922 403.496C 140.01 402.886 138.113 402.248 136.226 401.582L 135.893 402.525ZM 151.273 407.261C 153.21 407.772 155.163 408.256 157.122 408.71L 157.348 407.735C 155.396 407.283 153.458 406.804 151.528 406.294L 151.273 407.261ZM 166.973 410.727C 168.948 411.079 170.937 411.403 172.931 411.696L 173.077 410.707C 171.09 410.415 169.116 410.093 167.148 409.742L 166.973 410.727ZM 182.914 412.906C 184.908 413.097 186.915 413.259 188.926 413.39L 188.991 412.392C 186.987 412.261 184.996 412.101 183.009 411.911L 182.914 412.906ZM 198.971 413.792C 199.978 413.807 200.989 413.815 202 413.815L 202 412.815C 200.993 412.815 199.99 412.807 198.986 412.792L 198.971 413.792ZM 202 413.815C 203.011 413.815 204.022 413.807 205.029 413.792L 205.014 412.792C 204.01 412.807 203.007 412.815 202 412.815L 202 413.815ZM 215.075 413.39C 217.085 413.259 219.092 413.097 221.086 412.906L 220.991 411.911C 219.004 412.101 217.013 412.261 215.009 412.392L 215.075 413.39ZM 231.069 411.696C 233.063 411.403 235.052 411.079 237.027 410.727L 236.852 409.742C 234.884 410.093 232.91 410.415 230.923 410.707L 231.069 411.696ZM 246.878 408.71C 248.837 408.256 250.79 407.772 252.727 407.261L 252.472 406.294C 250.542 406.804 248.604 407.283 246.652 407.735L 246.878 408.71ZM 262.382 404.448C 264.302 403.836 266.212 403.194 268.107 402.525L 267.774 401.582C 265.887 402.248 263.99 402.886 262.078 403.496L 262.382 404.448ZM 277.5 398.937C 279.36 398.172 281.211 397.377 283.043 396.558L 282.635 395.645C 280.809 396.462 278.973 397.25 277.119 398.012L 277.5 398.937ZM 292.116 392.222C 293.908 391.31 295.689 390.369 297.45 389.404L 296.97 388.527C 295.215 389.488 293.448 390.422 291.662 391.331L 292.116 392.222ZM 306.145 384.354C 307.858 383.301 309.558 382.221 311.238 381.118L 310.689 380.282C 309.016 381.381 307.328 382.453 305.622 383.502L 306.145 384.354ZM 319.503 375.392C 321.127 374.207 322.735 372.995 324.323 371.763L 323.709 370.973C 322.128 372.201 320.531 373.404 318.914 374.584L 319.503 375.392ZM 332.11 365.402C 333.635 364.093 335.143 362.759 336.629 361.405L 335.956 360.665C 334.475 362.014 332.978 363.339 331.459 364.643L 332.11 365.402ZM 343.894 354.453C 345.311 353.029 346.71 351.581 348.086 350.115L 347.357 349.431C 345.986 350.891 344.597 352.329 343.185 353.748L 343.894 354.453ZM 354.787 342.619C 356.089 341.089 357.372 339.536 358.63 337.967L 357.85 337.341C 356.596 338.905 355.323 340.446 354.025 341.971L 354.787 342.619ZM 364.729 329.973C 365.908 328.348 367.066 326.701 368.199 325.04L 367.373 324.476C 366.244 326.132 365.094 327.766 363.92 329.386L 364.729 329.973ZM 373.661 316.598C 374.711 314.887 375.738 313.155 376.74 311.41L 375.873 310.912C 374.875 312.651 373.854 314.37 372.809 316.075L 373.661 316.598ZM 381.534 302.572C 382.448 300.784 383.34 298.978 384.204 297.159L 383.301 296.73C 382.44 298.542 381.555 300.335 380.643 302.117L 381.534 302.572ZM 388.302 287.977C 389.074 286.127 389.823 284.259 390.544 282.382L 389.611 282.023C 388.892 283.894 388.149 285.748 387.379 287.592L 388.302 287.977ZM 393.922 272.912C 394.55 271.005 395.154 269.083 395.729 267.152L 394.771 266.866C 394.198 268.79 393.599 270.699 392.972 272.599L 393.922 272.912ZM 398.368 257.45C 398.848 255.504 399.301 253.544 399.726 251.576L 398.749 251.365C 398.325 253.325 397.875 255.271 397.398 257.21L 398.368 257.45ZM 401.614 241.702C 401.944 239.724 402.246 237.733 402.521 235.736L 401.53 235.6C 401.257 237.59 400.956 239.567 400.628 241.538L 401.614 241.702ZM 403.652 225.745C 403.83 223.75 403.981 221.742 404.103 219.73L 403.105 219.67C 402.983 221.674 402.833 223.668 402.656 225.656L 403.652 225.745ZM 404.479 209.686C 404.493 208.679 404.5 207.668 404.5 206.657L 403.5 206.657C 403.5 207.664 403.493 208.668 403.479 209.672L 404.479 209.686ZM 405 206.657C 405 205.645 404.993 204.631 404.979 203.622L 402.979 203.65C 402.993 204.652 403 205.652 403 206.657L 405 206.657ZM 404.602 193.554C 404.48 191.538 404.328 189.524 404.15 187.525L 402.158 187.703C 402.335 189.688 402.484 191.674 402.606 193.675L 404.602 193.554ZM 403.016 177.51C 402.741 175.51 402.438 173.512 402.108 171.531L 400.135 171.859C 400.462 173.827 400.762 175.796 401.035 177.782L 403.016 177.51ZM 400.215 161.633C 399.789 159.662 399.334 157.695 398.854 155.745L 396.912 156.224C 397.389 158.159 397.837 160.098 398.26 162.055L 400.215 161.633ZM 396.209 146.02C 395.632 144.085 395.026 142.156 394.397 140.246L 392.497 140.872C 393.123 142.769 393.719 144.671 394.292 146.591L 396.209 146.02ZM 391.011 130.754C 390.288 128.873 389.537 126.998 388.763 125.145L 386.918 125.915C 387.686 127.756 388.427 129.603 389.144 131.471L 391.011 130.754ZM 384.656 115.941C 383.79 114.119 382.895 112.306 381.979 110.514L 380.198 111.425C 381.108 113.204 381.99 114.991 382.85 116.799L 384.656 115.941ZM 377.174 101.655C 376.17 99.9075 375.139 98.1697 374.087 96.455L 372.382 97.5006C 373.426 99.2029 374.443 100.916 375.439 102.651L 377.174 101.655ZM 368.612 87.9933C 367.477 86.3289 366.315 84.6764 365.134 83.0481L 363.515 84.2224C 364.687 85.8389 365.833 87.4676 366.96 89.12L 368.612 87.9933ZM 359.02 75.0351C 357.76 73.463 356.472 71.9046 355.167 70.3715L 353.644 71.6678C 354.939 73.1897 356.209 74.7256 357.46 76.2864L 359.02 75.0351ZM 348.451 62.8571C 347.072 61.3886 345.668 59.9355 344.248 58.5088L 342.831 59.9196C 344.24 61.3359 345.624 62.7679 346.992 64.2258L 348.451 62.8571ZM 336.966 51.5403C 335.477 50.184 333.963 48.8449 332.436 47.5332L 331.133 49.0506C 332.649 50.3526 334.141 51.6722 335.619 53.0187L 336.966 51.5403ZM 324.629 41.1569C 323.039 39.922 321.425 38.7062 319.798 37.5187L 318.619 39.134C 320.233 40.3127 321.824 41.5107 323.403 42.7365L 324.629 41.1569ZM 311.513 31.7788C 309.83 30.6737 308.124 29.5894 306.407 28.5343L 305.36 30.2382C 307.063 31.2854 308.744 32.3537 310.415 33.4506L 311.513 31.7788ZM 297.69 23.472C 295.925 22.5054 294.138 21.5611 292.343 20.6468L 291.435 22.4291C 293.217 23.3365 294.978 24.2667 296.729 25.2261L 297.69 23.472ZM 283.247 16.3003C 281.411 15.4792 279.554 14.682 277.69 13.9152L 276.929 15.7649C 278.779 16.5258 280.609 17.311 282.431 18.1261L 283.247 16.3003ZM 268.273 10.3184C 266.375 9.64818 264.457 9.00352 262.534 8.38977L 261.926 10.2951C 263.835 10.9041 265.724 11.5391 267.607 12.2043L 268.273 10.3184ZM 252.855 5.57004C 250.914 5.0578 248.954 4.57237 246.99 4.11789L 246.539 6.06638C 248.488 6.51734 250.418 6.99543 252.345 7.50384L 252.855 5.57004ZM 237.115 2.09562C 235.136 1.74261 233.14 1.4177 231.141 1.12379L 230.85 3.10251C 232.833 3.39413 234.8 3.71414 236.764 4.06454L 237.115 2.09562ZM 221.134 -0.0896272C 219.135 -0.280683 217.121 -0.442713 215.107 -0.574071L 214.977 1.42169C 216.976 1.55201 218.96 1.71161 220.943 1.90129L 221.134 -0.0896272ZM 205.036 -0.977239C 204.027 -0.99237 203.013 -0.999993 202 -1L 202 1C 203.005 0.999993 204.005 1.0075 205.006 1.02254L 205.036 -0.977239ZM 202 -1C 200.987 -0.999993 199.973 -0.99237 198.964 -0.977239L 198.994 1.02254C 199.995 1.0075 200.995 0.999993 202 1L 202 -1ZM 188.893 -0.57407C 186.878 -0.442712 184.864 -0.280682 182.866 -0.0896265L 183.057 1.90129C 185.04 1.71161 187.024 1.55201 189.023 1.42169L 188.893 -0.57407ZM 172.859 1.12379C 170.86 1.4177 168.864 1.74261 166.885 2.09562L 167.236 4.06454C 169.2 3.71414 171.167 3.39413 173.15 3.10251L 172.859 1.12379ZM 157.01 4.11789C 155.046 4.57237 153.086 5.0578 151.145 5.57004L 151.655 7.50385C 153.582 6.99543 155.512 6.51735 157.461 6.06638L 157.01 4.11789ZM 141.466 8.38977C 139.543 9.00353 137.625 9.64819 135.727 10.3184L 136.393 12.2043C 138.276 11.5391 140.165 10.9041 142.074 10.2951L 141.466 8.38977ZM 126.31 13.9152C 124.446 14.682 122.589 15.4792 120.753 16.3004L 121.569 18.1261C 123.391 17.311 125.221 16.5258 127.071 15.7649L 126.31 13.9152ZM 111.657 20.6468C 109.862 21.5611 108.075 22.5054 106.31 23.472L 107.271 25.2261C 109.022 24.2667 110.783 23.3365 112.565 22.4291L 111.657 20.6468ZM 97.5929 28.5344C 95.8765 29.5894 94.1703 30.6737 92.4874 31.7788L 93.5851 33.4506C 95.2555 32.3537 96.9365 31.2854 98.6403 30.2382L 97.5929 28.5344ZM 84.2018 37.5187C 82.5753 38.7062 80.9608 39.9221 79.3706 41.1569L 80.5973 42.7365C 82.1758 41.5107 83.7666 40.3127 85.3811 39.134L 84.2018 37.5187ZM 71.5642 47.5332C 70.0367 48.8449 68.5228 50.184 67.0341 51.5404L 68.3811 53.0187C 69.8589 51.6722 71.3507 50.3526 72.8671 49.0506L 71.5642 47.5332ZM 59.7519 58.5089C 58.3321 59.9355 56.9278 61.3886 55.5494 62.8571L 57.0077 64.2258C 58.376 62.7679 59.76 61.3359 61.1695 59.9196L 59.7519 58.5089ZM 48.8327 70.3715C 47.528 71.9046 46.2404 73.463 44.9796 75.0351L 46.5398 76.2864C 47.7915 74.7256 49.0605 73.1897 50.3558 71.6678L 48.8327 70.3715ZM 38.8662 83.0481C 37.6852 84.6764 36.5228 86.3289 35.3879 87.9933L 37.0403 89.1201C 38.167 87.4676 39.3127 85.8389 40.4852 84.2224L 38.8662 83.0481ZM 29.9128 96.4551C 28.8613 98.1697 27.8298 99.9075 26.8264 101.655L 28.5609 102.651C 29.5571 100.916 30.5737 99.2029 31.6177 97.5006L 29.9128 96.4551ZM 22.0214 110.514C 21.1051 112.306 20.2104 114.119 19.3442 115.941L 21.1504 116.799C 22.0103 114.991 22.8922 113.204 23.8019 111.425L 22.0214 110.514ZM 15.2369 125.145C 14.4628 126.998 13.7115 128.873 12.9891 130.754L 14.8561 131.471C 15.5733 129.603 16.3138 127.756 17.0824 125.915L 15.2369 125.145ZM 9.60343 140.246C 8.9736 142.156 8.36802 144.085 7.79148 146.02L 9.70819 146.591C 10.2805 144.671 10.8775 142.769 11.5028 140.872L 9.60343 140.246ZM 5.14601 155.745C 4.66575 157.695 4.21083 159.662 3.7849 161.633L 5.73977 162.055C 6.1626 160.098 6.61105 158.159 7.08793 156.224L 5.14601 155.745ZM 1.8924 171.531C 1.56239 173.512 1.25876 175.51 0.98406 177.51L 2.96547 177.782C 3.23816 175.796 3.5375 173.827 3.86522 171.859L 1.8924 171.531ZM -0.149793 187.525C -0.328316 189.524 -0.479656 191.538 -0.60236 193.554L 1.39394 193.675C 1.51574 191.674 1.66496 189.688 1.84228 187.703L -0.149793 187.525ZM -0.978748 203.622C -0.992877 204.631 -0.999994 205.645 -1 206.657L 1 206.657C 0.999994 205.652 1.00701 204.652 1.02106 203.65L -0.978748 203.622ZM -1 206.657C -0.999994 207.67 -0.992877 208.684 -0.978748 209.693L 1.02106 209.665C 1.00701 208.663 0.999994 207.663 1 206.657L -1 206.657ZM -0.602359 219.761C -0.479655 221.776 -0.328315 223.791 -0.149792 225.79L 1.84228 225.612C 1.66496 223.627 1.51574 221.64 1.39395 219.639L -0.602359 219.761ZM 0.984063 235.804C 1.25876 237.804 1.56239 239.803 1.8924 241.784L 3.86522 241.455C 3.5375 239.488 3.23816 237.518 2.96547 235.532L 0.984063 235.804ZM 3.7849 251.682C 4.21083 253.653 4.66575 255.62 5.14601 257.569L 7.08793 257.091C 6.61105 255.155 6.16261 253.216 5.73977 251.259L 3.7849 251.682ZM 7.79149 267.295C 8.36803 269.229 8.9736 271.159 9.60344 273.069L 11.5028 272.442C 10.8775 270.546 10.2805 268.644 9.70819 266.723L 7.79149 267.295ZM 12.9891 282.561C 13.7115 284.442 14.4628 286.316 15.2369 288.17L 17.0824 287.399C 16.3138 285.559 15.5733 283.711 14.8561 281.844L 12.9891 282.561ZM 19.3442 297.374C 20.2104 299.196 21.1051 301.009 22.0214 302.8L 23.8019 301.889C 22.8922 300.111 22.0103 298.324 21.1504 296.515L 19.3442 297.374ZM 26.8264 311.659C 27.8299 313.407 28.8613 315.145 29.9128 316.86L 31.6177 315.814C 30.5737 314.112 29.5571 312.399 28.5609 310.663L 26.8264 311.659ZM 35.3879 325.321C 36.5229 326.986 37.6852 328.638 38.8662 330.266L 40.4852 329.092C 39.3127 327.476 38.167 325.847 37.0403 324.195L 35.3879 325.321ZM 44.9796 338.279C 46.2404 339.852 47.528 341.41 48.8327 342.943L 50.3558 341.647C 49.0605 340.125 47.7915 338.589 46.5398 337.028L 44.9796 338.279ZM 55.5494 350.457C 56.9278 351.926 58.3321 353.379 59.7519 354.806L 61.1695 353.395C 59.7601 351.979 58.376 350.547 57.0077 349.089L 55.5494 350.457ZM 67.0341 361.774C 68.5228 363.131 70.0367 364.47 71.5642 365.781L 72.8671 364.264C 71.3507 362.962 69.8589 361.642 68.3811 360.296L 67.0341 361.774ZM 79.3706 372.158C 80.9608 373.393 82.5753 374.608 84.2018 375.796L 85.3811 374.181C 83.7666 373.002 82.1758 371.804 80.5973 370.578L 79.3706 372.158ZM 92.4874 381.536C 94.1703 382.641 95.8765 383.725 97.5929 384.78L 98.6403 383.076C 96.9365 382.029 95.2555 380.961 93.5851 379.864L 92.4874 381.536ZM 106.31 389.843C 108.075 390.809 109.862 391.753 111.657 392.668L 112.565 390.886C 110.783 389.978 109.022 389.048 107.271 388.088L 106.31 389.843ZM 120.753 397.014C 122.589 397.835 124.446 398.633 126.31 399.399L 127.071 397.55C 125.221 396.789 123.391 396.004 121.569 395.189L 120.753 397.014ZM 135.727 402.996C 137.625 403.666 139.543 404.311 141.466 404.925L 142.074 403.02C 140.165 402.41 138.276 401.776 136.393 401.11L 135.727 402.996ZM 151.145 407.745C 153.086 408.257 155.046 408.742 157.01 409.197L 157.461 407.248C 155.512 406.797 153.582 406.319 151.655 405.811L 151.145 407.745ZM 166.885 411.219C 168.864 411.572 170.86 411.897 172.859 412.191L 173.15 410.212C 171.167 409.92 169.2 409.6 167.236 409.25L 166.885 411.219ZM 182.866 413.404C 184.865 413.595 186.879 413.757 188.893 413.889L 189.023 411.893C 187.024 411.763 185.04 411.603 183.057 411.413L 182.866 413.404ZM 198.964 414.292C 199.973 414.307 200.987 414.315 202 414.315L 202 412.315C 200.995 412.315 199.995 412.307 198.994 412.292L 198.964 414.292ZM 202 414.315C 203.013 414.315 204.027 414.307 205.036 414.292L 205.006 412.292C 204.005 412.307 203.005 412.315 202 412.315L 202 414.315ZM 215.107 413.889C 217.122 413.757 219.136 413.595 221.134 413.404L 220.943 411.413C 218.96 411.603 216.976 411.763 214.977 411.893L 215.107 413.889ZM 231.141 412.191C 233.14 411.897 235.136 411.572 237.115 411.219L 236.764 409.25C 234.8 409.6 232.833 409.92 230.85 410.212L 231.141 412.191ZM 246.99 409.197C 248.954 408.742 250.914 408.257 252.855 407.745L 252.345 405.811C 250.418 406.319 248.488 406.797 246.539 407.248L 246.99 409.197ZM 262.534 404.925C 264.457 404.311 266.375 403.666 268.273 402.996L 267.607 401.11C 265.724 401.776 263.835 402.41 261.926 403.019L 262.534 404.925ZM 277.69 399.399C 279.554 398.633 281.411 397.835 283.247 397.014L 282.431 395.189C 280.609 396.004 278.779 396.789 276.929 397.55L 277.69 399.399ZM 292.343 392.668C 294.138 391.753 295.925 390.809 297.69 389.843L 296.729 388.088C 294.978 389.048 293.217 389.978 291.435 390.886L 292.343 392.668ZM 306.407 384.78C 308.124 383.725 309.83 382.641 311.513 381.536L 310.415 379.864C 308.744 380.961 307.063 382.029 305.36 383.076L 306.407 384.78ZM 319.798 375.796C 321.425 374.608 323.039 373.393 324.629 372.158L 323.403 370.578C 321.824 371.804 320.233 373.002 318.619 374.181L 319.798 375.796ZM 332.436 365.781C 333.963 364.47 335.477 363.131 336.966 361.774L 335.619 360.296C 334.141 361.642 332.649 362.962 331.133 364.264L 332.436 365.781ZM 344.248 354.806C 345.668 353.379 347.072 351.926 348.451 350.457L 346.992 349.089C 345.624 350.547 344.24 351.979 342.831 353.395L 344.248 354.806ZM 355.167 342.943C 356.472 341.41 357.76 339.852 359.02 338.279L 357.46 337.028C 356.209 338.589 354.939 340.125 353.644 341.647L 355.167 342.943ZM 365.134 330.266C 366.315 328.638 367.477 326.986 368.612 325.321L 366.96 324.195C 365.833 325.847 364.687 327.476 363.515 329.092L 365.134 330.266ZM 374.087 316.86C 375.139 315.145 376.17 313.407 377.174 311.659L 375.439 310.663C 374.443 312.399 373.426 314.112 372.382 315.814L 374.087 316.86ZM 381.979 302.8C 382.895 301.009 383.79 299.196 384.656 297.374L 382.85 296.515C 381.99 298.324 381.108 300.111 380.198 301.889L 381.979 302.8ZM 388.763 288.17C 389.537 286.316 390.288 284.442 391.011 282.561L 389.144 281.844C 388.427 283.711 387.686 285.559 386.918 287.399L 388.763 288.17ZM 394.397 273.069C 395.026 271.159 395.632 269.229 396.209 267.295L 394.292 266.723C 393.719 268.644 393.123 270.546 392.497 272.442L 394.397 273.069ZM 398.854 257.569C 399.334 255.62 399.789 253.653 400.215 251.682L 398.26 251.259C 397.837 253.216 397.389 255.155 396.912 257.091L 398.854 257.569ZM 402.108 241.784C 402.438 239.803 402.741 237.804 403.016 235.804L 401.035 235.532C 400.762 237.518 400.462 239.488 400.135 241.455L 402.108 241.784ZM 404.15 225.79C 404.328 223.791 404.48 221.776 404.602 219.761L 402.606 219.639C 402.484 221.64 402.335 223.627 402.158 225.612L 404.15 225.79ZM 404.979 209.693C 404.993 208.684 405 207.67 405 206.657L 403 206.657C 403 207.663 402.993 208.663 402.979 209.665L 404.979 209.693Z"/>
<path id="path11_fill" d="M 47.2515 23.6856C 47.2515 36.7669 36.6739 47.3713 23.6257 47.3713C 10.5776 47.3713 0 36.7669 0 23.6856C 0 10.6044 10.5776 0 23.6257 0C 36.6739 0 47.2515 10.6044 47.2515 23.6856Z"/>
<path id="path12_fill" d="M 8.31674 22.9999C 8.12694 22.9999 7.9729 22.8438 7.9729 22.6514C 7.9729 14.9527 0.187742 7.48054 0.108659 7.40666C 0.024763 7.3272 -0.0144344 7.21011 0.00482047 7.09511C 0.0240754 6.98011 0.0983442 6.88184 0.203558 6.83445C 5.26278 4.53585 3.94863 0.631448 3.89018 0.466267C 3.82623 0.285055 3.91906 0.085723 4.09786 0.0202081C 4.27459 -0.0439128 4.47333 0.0494807 4.53797 0.230692C 4.55379 0.275995 6.03229 4.65643 0.938682 7.25193C 2.52308 8.85704 8.66058 15.5347 8.66058 22.6514C 8.66058 22.8438 8.50654 22.9999 8.31674 22.9999Z"/>
<path id="path13_fill" d="M 0.343837 22.9996C 0.154039 22.9996 0 22.8435 0 22.6511C 0 15.5344 6.13749 8.85677 7.72258 7.25165C 2.62898 4.65546 4.10748 0.275719 4.12329 0.230416C 4.18725 0.0492047 4.38324 -0.0434918 4.56203 0.0199321C 4.74014 0.08475 4.83366 0.283385 4.77108 0.465294C 4.71332 0.630475 3.41912 4.54533 8.45702 6.83417C 8.56223 6.88157 8.6365 6.97984 8.65576 7.09484C 8.67432 7.20984 8.63581 7.32693 8.55192 7.40638C 8.47283 7.48026 0.687674 14.958 0.687674 22.6511C 0.687674 22.8435 0.533635 22.9996 0.343837 22.9996Z"/>
<path id="path14_fill" d="M 0.343837 13.5497C 0.154039 13.5497 0 13.3936 0 13.2012L 0 0.348483C 0 0.15612 0.154039 1.06349e-08 0.343837 1.06349e-08C 0.533635 1.06349e-08 0.687674 0.15612 0.687674 0.348483L 0.687674 13.2012C 0.687674 13.3936 0.533635 13.5497 0.343837 13.5497Z"/>
<path id="path15_fill" d="M 1.55621 3.15447C 0.697989 3.15447 3.20039e-07 2.44705 3.20039e-07 1.57793C 3.20039e-07 0.708118 0.697989 -5.31743e-09 1.55621 -5.31743e-09C 2.41442 -5.31743e-09 3.11241 0.708118 3.11241 1.57793C 3.11241 2.44705 2.41442 3.15447 1.55621 3.15447ZM 1.55621 0.696966C 1.07759 0.696966 0.687675 1.09145 0.687675 1.57793C 0.687675 2.06232 1.0769 2.4575 1.55621 2.4575C 2.03552 2.4575 2.42474 2.06302 2.42474 1.57793C 2.42474 1.09215 2.03483 0.696966 1.55621 0.696966Z"/>
<path id="path16_fill" d="M 14.7506 0.696966L 0.343837 0.696966C 0.154039 0.696966 6.55817e-08 0.540846 6.55817e-08 0.348483C 6.55817e-08 0.15612 0.154039 0 0.343837 0L 14.7499 0C 14.9397 0 15.0938 0.15612 15.0938 0.348483C 15.0938 0.540846 14.9404 0.696966 14.7506 0.696966Z"/>
<path id="path17_stroke" d="M 0.237362 54.9171L 2.94272 53.4579L 2.468 52.5777L -0.237362 54.0369L 0.237362 54.9171ZM 11.9606 48.5938L 17.3713 45.6754L 16.8966 44.7953L 11.4859 47.7137L 11.9606 48.5938ZM 26.3891 40.8114L 31.7999 37.893L 31.3251 37.0129L 25.9144 39.9313L 26.3891 40.8114ZM 40.8177 33.029L 46.2284 30.1106L 45.7537 29.2304L 40.343 32.1488L 40.8177 33.029ZM 55.2463 25.2466L 60.657 22.3281L 60.1823 21.448L 54.7716 24.3664L 55.2463 25.2466ZM 69.6749 17.4641L 75.0856 14.5457L 74.6109 13.6656L 69.2001 16.584L 69.6749 17.4641ZM 84.1034 9.6817L 89.5141 6.76329L 89.0394 5.88316L 83.6287 8.80157L 84.1034 9.6817ZM 98.532 1.89927L 101.237 0.440067L 100.763 -0.440067L 98.0573 1.01914L 98.532 1.89927Z"/>
<path id="path18_fill" d="M 1.00949 14.1638C 1.00949 15.7925 1.4611 17.1006 2.36433 18.0881C 3.28526 19.0757 4.67552 19.6215 6.5351 19.7254L 6.5351 11.0712L 5.28653 10.7853C 4.7198 10.664 4.15307 10.5081 3.58634 10.3175C 3.03732 10.1096 2.53257 9.84105 2.07211 9.51186C 1.62935 9.16535 1.26629 8.7322 0.982922 8.21243C 0.717268 7.67533 0.58444 7.00829 0.58444 6.2113C 0.58444 5.91676 0.628716 5.5096 0.717268 4.98983C 0.805819 4.45273 1.04491 3.91563 1.43454 3.37853C 1.84187 2.84143 2.43517 2.37363 3.21442 1.97514C 4.01138 1.55932 5.11828 1.32542 6.5351 1.27345L 6.5351 0L 7.3852 0L 7.3852 1.27345C 9.22707 1.3081 10.697 1.77589 11.7951 2.67684C 12.8931 3.57778 13.4775 5.01582 13.5484 6.99096L 12.5389 6.99096C 12.4326 5.29303 11.9279 4.08889 11.0247 3.37853C 10.1214 2.65085 8.90829 2.26968 7.3852 2.23503L 7.3852 10.2915L 9.45731 10.7853C 10.3251 10.9932 11.0512 11.2618 11.6357 11.591C 12.2201 11.9028 12.6894 12.2667 13.0436 12.6825C 13.3978 13.081 13.6458 13.5228 13.7875 14.0079C 13.9292 14.4757 14 14.9782 14 15.5153C 14 16.4855 13.8052 17.2998 13.4156 17.9582C 13.0436 18.5992 12.5478 19.1277 11.9279 19.5435C 11.308 19.942 10.5996 20.2279 9.80266 20.4011C 9.00569 20.5917 8.19987 20.6957 7.3852 20.713L 7.3852 23L 6.5351 23L 6.5351 20.713C 5.56104 20.6264 4.66667 20.4531 3.85199 20.1932C 3.05503 19.916 2.37318 19.5175 1.80645 18.9977C 1.23972 18.478 0.796964 17.8282 0.478178 17.0486C 0.159393 16.2516 0 15.29 0 14.1638L 1.00949 14.1638ZM 6.5351 10.0576L 6.5351 2.26102C 5.63188 2.29567 4.87034 2.42561 4.25047 2.65085C 3.63061 2.85876 3.11701 3.13597 2.70968 3.48249C 2.32005 3.829 2.03669 4.23616 1.85958 4.70395C 1.68248 5.17175 1.59393 5.6742 1.59393 6.2113C 1.59393 6.8177 1.69133 7.32881 1.88615 7.74463C 2.09867 8.14313 2.37318 8.48098 2.70968 8.75819C 3.06388 9.01808 3.47122 9.23465 3.93169 9.40791C 4.40987 9.56384 4.91461 9.70245 5.44592 9.82373L 6.5351 10.0576ZM 7.3852 19.7254C 8.14674 19.7254 8.86401 19.6475 9.537 19.4915C 10.21 19.3356 10.8033 19.093 11.3169 18.7638C 11.8305 18.4173 12.2378 17.9842 12.5389 17.4644C 12.84 16.9273 12.9905 16.2776 12.9905 15.5153C 12.9905 14.5277 12.6717 13.722 12.0342 13.0983C 11.3966 12.4746 10.3871 11.9895 9.00569 11.6429L 7.3852 11.2531L 7.3852 19.7254Z"/>
<path id="path19_fill" d="M 5.72099 25C 5.65735 25 5.59293 24.9846 5.53479 24.9537C 5.40752 24.8866 5.32817 24.7555 5.32817 24.6143L 5.32817 19.1195C 1.88945 17.3639 0 14.2902 0 10.439C 0 4.48754 5.5725 -1.83897e-10 12.963 -1.83897e-10C 20.3534 -1.83897e-10 25.9259 4.48754 25.9259 10.439C 25.9259 16.3898 20.3534 20.8773 12.963 20.8773C 12.7202 20.8773 12.4822 20.8642 12.2433 20.8518L 12.2276 20.8511L 5.93704 24.936C 5.87183 24.9784 5.79641 25 5.72099 25ZM 12.963 0.771319C 6.0211 0.771319 0.785634 4.92796 0.785634 10.439C 0.785634 13.0021 1.67183 16.4877 5.89461 18.5371C 6.02817 18.6019 6.11302 18.7361 6.11302 18.8827L 6.11302 23.897L 11.9024 20.1376C 11.9731 20.0913 12.0587 20.0643 12.1396 20.0744L 12.2857 20.0821C 12.5104 20.0944 12.7343 20.106 12.9622 20.106C 19.904 20.106 25.1395 15.9501 25.1395 10.439C 25.1395 4.92796 19.9048 0.771319 12.963 0.771319Z"/>
<path id="path20_fill" d="M 0.795848 1.56269C 1.23538 1.56269 1.5917 1.21287 1.5917 0.781347C 1.5917 0.349821 1.23538 0 0.795848 0C 0.356313 0 0 0.349821 0 0.781347C 0 1.21287 0.356313 1.56269 0.795848 1.56269Z"/>
<path id="path21_fill" d="M 0.795847 1.56269C 1.23538 1.56269 1.5917 1.21287 1.5917 0.781347C 1.5917 0.349821 1.23538 0 0.795847 0C 0.356313 0 0 0.349821 0 0.781347C 0 1.21287 0.356313 1.56269 0.795847 1.56269Z"/>
<path id="path22_fill" d="M 0.795847 1.56269C 1.23538 1.56269 1.59169 1.21287 1.59169 0.781347C 1.59169 0.349821 1.23538 0 0.795847 0C 0.356313 0 0 0.349821 0 0.781347C 0 1.21287 0.356313 1.56269 0.795847 1.56269Z"/>
</defs>
</svg>
